<?xml version="1.0" encoding="UTF-8" standalone="no"?>
<svg
   xmlns:dc="http://purl.org/dc/elements/1.1/"
   xmlns:cc="http://creativecommons.org/ns#"
   xmlns:rdf="http://www.w3.org/1999/02/22-rdf-syntax-ns#"
   xmlns:svg="http://www.w3.org/2000/svg"
   xmlns="http://www.w3.org/2000/svg"
   xmlns:sodipodi="http://sodipodi.sourceforge.net/DTD/sodipodi-0.dtd"
   xmlns:inkscape="http://www.inkscape.org/namespaces/inkscape"
   viewBox="0 0 228.09157 233.33948"
   height="233.33948"
   width="228.09157"
   version="1.1"
   id="svg3336"
   inkscape:version="0.91 r13725"
   sodipodi:docname="logo-plain.svg">
  <sodipodi:namedview
     pagecolor="#ffffff"
     bordercolor="#666666"
     borderopacity="1"
     objecttolerance="10"
     gridtolerance="10"
     guidetolerance="10"
     inkscape:pageopacity="0"
     inkscape:pageshadow="2"
     inkscape:window-width="1920"
     inkscape:window-height="1027"
     id="namedview3340"
     showgrid="false"
     fit-margin-top="0"
     fit-margin-left="0"
     fit-margin-right="0"
     fit-margin-bottom="0"
     inkscape:zoom="2.7342257"
     inkscape:cx="145.26899"
     inkscape:cy="122.6387"
     inkscape:window-x="-8"
     inkscape:window-y="-8"
     inkscape:window-maximized="1"
     inkscape:current-layer="svg3336" />
  <metadata
     id="metadata3342">
    <rdf:RDF>
      <cc:Work
         rdf:about="">
        <dc:format>image/svg+xml</dc:format>
        <dc:type
           rdf:resource="http://purl.org/dc/dcmitype/StillImage" />
        <dc:title></dc:title>
      </cc:Work>
    </rdf:RDF>
  </metadata>
  <defs
     id="defs3340" />
  <path
     id="path3346"
     d="m 105.29094,0 c -0.66,0 -1.19922,0.245816 -1.19922,0.544922 0,0.299111 0.53922,0.403061 1.19922,0.230468 0.66,-0.172594 1.20117,-0.41841 1.20117,-0.544921 C 106.49211,0.103957 105.95094,0 105.29094,0 Z m 5.94726,0.605469 c -1.77265,-0.05753 -4.30612,0.294361 -5.21875,0.933593 -0.8025,0.562096 -1.87876,0.786798 -2.68359,0.560547 -1.05327,-0.296093 -1.14883,-0.241969 -0.44336,0.251953 0.7622,0.533638 0.71549,0.647488 -0.30078,0.742188 -2.41769,0.225283 -3.021227,0.344186 -4.089837,0.800781 -0.63291,0.270429 -1.3735,0.183146 -1.76368,-0.207031 -0.49623,-0.496226 -0.16721,-0.772418 1.25391,-1.056641 1.05874,-0.211748 2.070437,-0.620826 2.248047,-0.908203 0.1776,-0.287376 1.04948,-0.558576 1.9375,-0.603516 1.40609,-0.07116 1.44044,-0.115974 0.26953,-0.341797 -0.7395,-0.142617 -2.989417,0.325226 -4.999997,1.039063 -2.06462,0.733023 -4.22093,1.133874 -4.95508,0.921875 -0.71493,-0.20645 -4.27039,-0.523381 -7.90039,-0.705078 l -6.59961,-0.330078 -5.60156,3.498047 c -7.54448,4.712454 -14.26688,11.033056 -16.72852,15.726562 -1.0615,2.02392 -1.77525,4.082852 -1.58593,4.576172 0.1893,0.49332 0.045,0.896484 -0.32032,0.896484 -0.36531,0 -0.66406,0.65932 -0.66406,1.464844 0,0.805524 -0.23406,1.608726 -0.51953,1.785156 -0.28546,0.17643 -0.67366,1.340392 -0.86328,2.585938 -0.18961,1.245545 -0.51964,2.938672 -0.73438,3.763672 -1.12259,4.312776 -1.44776,7.92092 -1.05469,11.701172 l 0.43555,4.199218 0.48047,-7.412109 c 0.39994,-6.182634 0.80734,-8.283143 2.45508,-12.669922 2.55683,-6.807036 6.38959,-13.318616 7.58203,-12.878906 0.48493,0.178824 0.69889,0.140295 0.47461,-0.08398 -1.12547,-1.125482 4.18926,-7.231775 9.32812,-10.716797 5.93178,-4.022754 10.61354,-5.507743 14.26172,-4.525391 1.59897,0.430555 2.69081,0.455307 3.15235,0.07227 0.46666,-0.387291 1.18726,-0.328038 2.125,0.173828 1.18285,0.633042 1.25638,0.820373 0.44726,1.130859 -1.86018,0.713819 -0.94593,1.460084 2.66211,2.169922 2.06634,0.406527 3.77642,1.087074 3.96485,1.578125 0.39373,1.02605 4.135627,1.179904 4.744137,0.195312 0.60247,-0.974814 -0.39794,-1.397095 -5.417967,-2.289062 -2.47402,-0.439588 -4.35325,-1.035108 -4.17578,-1.322266 0.48003,-0.776706 3.18737,-0.63356 6.87695,0.363282 5.600887,1.513235 6.370207,1.570199 3.671867,0.273437 -1.4321,-0.688238 -2.46726,-1.388202 -2.29882,-1.556641 0.16844,-0.168435 1.46742,-0.418168 2.88476,-0.554687 1.41734,-0.136519 2.98978,-0.366714 3.4961,-0.511719 0.50633,-0.145006 2.0682,-0.559513 3.4707,-0.921875 1.4025,-0.362369 2.55078,-0.919055 2.55078,-1.236336 0,-0.355547 -0.78992,-0.537752 -1.85352,-0.572265 z m 0.48633,2.697265 c -1.13877,2.11e-4 -1.6945,0.03755 -1.21484,0.126953 1.66215,0.309826 1.17148,1.970703 -0.58203,1.970703 -0.67969,0 -1.0597,0.174684 -0.84571,0.388672 0.80613,0.806134 -7.60646,4.51033 -10.374997,4.56836 -1.49379,0.03131 -2.0908,0.165086 -1.32812,0.296875 0.76268,0.131789 1.53472,0.624346 1.71484,1.09375 0.18013,0.469404 0.957687,0.853515 1.728517,0.853515 1.33808,0 5.66993,2.168099 5.66992,2.837891 0,0.175866 -1.06105,0.177786 -2.35742,0.0039 -1.88202,-0.252432 -2.29082,-0.143671 -2.02735,0.542969 0.23282,0.606714 -0.31169,0.481605 -1.8496,-0.425781 -1.498067,-0.883866 -2.669277,-1.162845 -3.746097,-0.892578 -1.472,0.36945 -1.50084,0.440632 -0.46875,1.195312 0.60423,0.441826 1.41688,0.682021 1.80469,0.533203 0.38779,-0.148812 1.71345,0.15049 2.947257,0.666016 2.68322,1.121112 2.89524,1.144728 2.33985,0.246093 -0.26737,-0.432622 -0.16529,-0.530917 0.27344,-0.259765 0.38615,0.238788 0.56497,0.657071 0.39648,0.929687 -0.29388,0.475518 1.36705,1.493462 2.17969,1.335938 0.21585,-0.04184 0.72101,0.320235 1.12304,0.804687 0.40206,0.484452 1.13268,0.88086 1.62305,0.88086 0.65535,0 0.80161,0.437556 0.55078,1.65039 -0.18789,0.907524 -0.19175,1.301114 -0.008,0.875 0.23445,-0.543108 0.79826,-0.273617 1.88672,0.900391 1.44289,1.556286 1.75088,2.395468 1.88086,5.125 0.055,1.155102 2.13006,1.423455 3.63672,0.470703 0.60392,-0.3819 1.21474,-0.263361 1.91797,0.373047 1.35613,1.227288 4.84322,8.482128 4.41211,9.179688 -0.18456,0.298613 -0.0619,0.712645 0.27343,0.919921 0.33539,0.207276 0.61133,0.919272 0.61133,1.582032 0,1.342782 0.19973,1.368818 -6.84375,-0.84961 -2.73393,-0.861084 -4.23697,-1.665592 -4.41992,-2.365234 -0.1523,-0.583086 -0.61319,-1.060541 -1.0252,-1.060541 -0.41201,0 -1.42469,-0.530494 -2.25,-1.179688 -0.82531,-0.649186 -1.64764,-1.033992 -1.82617,-0.855468 -0.17852,0.178524 -1.17767,-0.116874 -2.22071,-0.65625 -1.04304,-0.539376 -2.20469,-0.877737 -2.58203,-0.751953 -0.92477,0.308256 3.75758,3.443359 5.14258,3.443359 0.60287,0 0.96342,0.212682 0.80273,0.472656 -0.16066,0.25998 0.56654,0.822308 1.61524,1.25 1.0487,0.427686 2.44742,1.006613 3.10742,1.285156 0.66,0.278544 3.08844,1.085308 5.39844,1.794922 2.31,0.709614 4.53455,1.396034 4.94336,1.523438 0.53054,0.165336 0.58558,0.6495 0.18945,1.691406 -0.30525,0.802842 -0.39301,1.622616 -0.19336,1.822266 0.51293,0.512922 2.60084,-1.488259 2.21094,-2.119141 -0.46828,-0.757692 1.79244,-0.639198 2.56641,0.134766 0.36101,0.361014 2.52145,0.732658 4.80078,0.824219 6.30381,0.253236 9.7832,2.435438 9.7832,6.136718 0,1.817744 0.13126,2.022454 0.89258,1.390624 1.41486,-1.174221 2.90231,-0.268317 2.45898,1.49805 -0.40352,1.60774 -0.002,1.74331 2.64844,0.89453 l 1.5,-0.48047 -1.63086,-0.0586 c -1.23041,-0.0451 -1.54092,-0.29429 -1.26562,-1.01172 0.27682,-0.72138 0.85153,-0.85917 2.38086,-0.57227 1.24363,0.23331 2.01562,0.13687 2.01562,-0.25 0,-0.344938 -1.08039,-0.626951 -2.40039,-0.626951 -1.32,0 -2.36723,-0.201718 -2.32813,-0.449218 0.0392,-0.2475 0.0344,-0.990391 -0.01,-1.650391 -0.0649,-0.969888 -0.18533,-1.032387 -0.63086,-0.328125 -0.3032,0.479244 -0.41856,1.086353 -0.25586,1.349609 0.16294,0.263266 -0.10828,0.478526 -0.60328,0.478526 -1.13794,0 -1.81144,-1.01923 -0.8789,-1.330078 0.75911,-0.253038 -0.20822,-1.666307 -3.48242,-5.091797 -1.0395,-1.08753 -1.57872,-1.992546 -1.19922,-2.009766 0.3795,-0.01719 -0.67103,-0.555388 -2.33399,-1.195312 -1.66296,-0.63993 -4.63257,-2.45986 -6.59961,-4.044922 -1.96704,-1.585056 -3.84773,-3.003979 -4.17773,-3.154297 -0.33,-0.150318 -0.56278,-0.60863 -0.51758,-1.017578 0.0452,-0.409188 -0.15648,-0.594988 -0.44922,-0.414062 -0.29275,0.180923 -0.55282,0.110725 -0.57812,-0.15625 -0.0252,-0.266977 -0.13749,-0.957657 -0.24805,-1.535157 -0.252,-1.316381 0.19212,-1.329293 1.61133,-0.04492 0.79859,0.722718 1.29423,0.822959 1.76172,0.355469 0.46749,-0.46749 -0.0381,-1.046954 -1.79688,-2.05664 -1.94116,-1.114381 -2.39776,-1.687285 -2.20312,-2.767579 0.13525,-0.750672 -0.006,-1.20524 -0.31641,-1.013671 -0.30936,0.191201 -0.84302,0.174582 -1.18555,-0.03711 -0.34252,-0.211692 1.34126,-1.377382 3.74219,-2.589844 2.47327,-1.24899 4.45174,-2.651202 4.56446,-3.236328 0.1846,-0.958554 0.0401,-0.966826 -1.99805,-0.115234 -1.20774,0.504624 -2.01911,0.632094 -1.80469,0.285156 0.23951,-0.387528 -0.30435,-0.630859 -1.41016,-0.630859 -0.99,0 -1.96586,0.268709 -2.16796,0.595703 -0.20331,0.32898 -1.35868,-0.319911 -2.58594,-1.453125 -1.21989,-1.126392 -2.8918,-2.603715 -3.7168,-3.283203 -0.825,-0.679488 -1.78788,-1.474151 -2.13867,-1.765625 -1.02278,-0.849852 -3.12818,-1.892578 -3.82227,-1.892578 -1.39674,0 -0.50525,1.165049 2.0293,2.65039 1.46842,0.86055 3.90994,2.692551 5.42383,4.070313 l 2.75195,2.503906 -1.49609,1.386719 c -1.78258,1.652904 -2.28496,1.697839 -4.41992,0.390625 -5.05292,-3.09384 -5.68224,-3.683268 -7.10547,-6.652344 -0.83048,-1.7325 -1.7248,-3.150391 -1.98633,-3.150391 -0.26153,0 -1.23389,-0.595618 -2.16016,-1.324218 l -1.68359,-1.324219 1.68359,-0.689453 c 1.25961,-0.514842 2.23044,-0.516976 3.85352,-0.0078 3.00554,0.942841 7.94537,3.582181 10.10156,5.396485 0.99124,0.834078 1.95982,1.358513 2.15235,1.166015 0.98808,-0.988074 -9.22073,-7.350954 -11.86719,-7.396484 -1.178,-0.02026 -1.178,-0.02363 0,-0.847656 2.8201,-1.972683 5.79021,-1.115271 10.17187,2.935546 2.63862,2.439393 5.71094,4.739191 5.71094,4.275391 0,-0.357576 -0.78446,-1.146796 -4.1543,-4.179687 -1.40349,-1.263154 -2.39927,-2.448395 -2.21289,-2.634766 0.18637,-0.186371 0.72562,-0.01805 1.19922,0.375 0.66825,0.554606 0.96359,0.547885 1.32031,-0.0293 0.25297,-0.409304 0.15722,-0.845377 -0.21289,-0.96875 -0.85184,-0.283945 -0.25283,-1.945312 0.70117,-1.945312 0.98533,0 5.30888,4.649645 4.55665,4.90039 -0.33461,0.111535 3.3e-4,0.582445 0.74609,1.046875 1.24175,0.773313 1.28732,0.762105 0.5332,-0.15039 -0.45291,-0.548016 -0.55265,-0.998047 -0.22265,-0.998047 0.33,0 0.9163,0.382036 1.30273,0.847656 0.91102,1.097717 -0.10288,1.777324 -1.83203,1.228516 -0.91393,-0.290063 -1.19177,-0.174931 -0.99609,0.412109 0.14905,0.447132 0.65359,0.8125 1.12109,0.8125 0.4675,0 1.06619,0.3375 1.33008,0.75 0.2639,0.4125 0.8476,0.75 1.29687,0.75 0.44927,0 1.499,0.810781 2.33203,1.800781 0.83303,0.99 1.91527,1.798828 2.40625,1.798828 0.49098,0 1.69536,0.675 2.67578,1.5 1.89111,1.591266 2.86187,1.956628 2.15235,0.808594 -0.25925,-0.41946 -0.16531,-0.530688 0.23828,-0.28125 0.36651,0.226554 0.51403,0.808535 0.32813,1.292969 -0.1859,0.484428 -0.0463,0.880859 0.31054,0.880859 0.35683,0 1.07969,0.830906 1.60547,1.847657 0.62472,1.208087 1.26368,1.73115 1.8457,1.507812 0.48986,-0.187968 0.73831,-0.09444 0.55079,0.208984 -0.18753,0.303414 -0.0819,0.712711 0.23437,0.908204 0.31631,0.195491 0.75553,1.561214 0.97656,3.035156 0.22103,1.473935 0.59837,2.557441 0.83985,2.408203 0.7338,-0.453516 1.76596,3.70474 1.08789,4.382812 -0.32812,0.328116 -0.39186,0.92674 -0.14258,1.330079 0.31739,0.513546 0.68132,0.305475 1.21484,-0.691407 0.41879,-0.78294 0.60891,-1.670028 0.42188,-1.972656 -0.18704,-0.302628 -0.0491,-0.370261 0.30664,-0.150391 1.08923,0.673182 2.69206,6.365837 2.31836,8.234375 -0.26005,1.300254 -0.12253,1.75 0.53515,1.75 0.48675,0 0.88477,0.236641 0.88477,0.525391 0,0.28875 0.18181,1.434577 0.4043,2.546875 0.3811,1.905558 0.34659,1.963786 -0.61719,1 -1.69246,-1.692462 -3.33138,-5.929269 -2.83203,-7.320313 0.24711,-0.688485 0.27413,-1.926953 0.0605,-2.751953 -0.38301,-1.479486 -0.39843,-1.483065 -1.07421,-0.242187 -0.50237,0.922392 -0.50623,1.437129 -0.0176,1.925781 0.48858,0.488652 0.47776,0.892885 -0.0391,1.515625 -0.91914,1.107492 -0.41089,2.42085 2.40429,6.22461 2.59047,3.50015 2.77438,4.1672 1.26172,4.5625 -0.5775,0.15091 -0.15642,0.30545 0.93555,0.34375 1.33617,0.0469 1.84476,0.29748 1.55664,0.76367 -0.26142,0.42298 -0.16457,0.53041 0.24804,0.27539 0.74194,-0.45855 3.70899,1.23818 3.70899,2.12109 0,0.68339 -9.62458,0.33704 -10.79883,-0.38867 -0.46727,-0.2888 -1.5191,-0.59649 -2.33594,-0.68359 -0.81685,-0.0871 -1.71788,-0.57682 -2.0039,-1.08789 -0.28591,-0.51108 -1.02831,-0.9297 -1.64834,-0.9297 -0.62003,0 -1.53234,-0.40539 -2.02734,-0.90039 -1.14074,-1.140743 -2.25133,-1.168111 -1.82032,-0.0449 0.42572,1.10944 7.08682,4.51608 9.48243,4.84961 1.01937,0.14192 4.55351,0.27658 7.85351,0.30078 6.11326,0.0448 7.31609,0.3666 13.5,3.59375 2.40704,1.25615 3.7842,1.51467 2.29492,0.43164 -1.08771,-0.79103 -4.80641,-2.99678 -5.29492,-3.14063 -0.165,-0.0486 -1.04367,-0.29831 -1.95117,-0.55468 -2.00308,-0.56587 -2.08592,-1.13282 -0.29883,-2.02735 1.2743,-0.63785 1.2567,-0.65569 -0.30078,-0.32617 -2.12708,0.45003 -4.09437,-0.0606 -5.73828,-1.48633 -1.7007,-1.475 -1.65463,-1.76456 0.33789,-2.0664 1.15853,-0.1755 0.89201,-0.27675 -0.89844,-0.33985 -1.4025,-0.0494 -2.5712,-0.29156 -2.5957,-0.53906 -0.0245,-0.2475 -0.18037,-1.124219 -0.3457,-1.949219 -0.93137,-4.64739 -1.09539,-7.189082 -0.62305,-9.638672 0.32306,-1.675176 0.29842,-3.772014 -0.0644,-5.40039 l -0.59375,-2.66211 -0.0645,3.714844 c -0.0353,2.043024 -0.29976,3.860989 -0.58789,4.039063 -0.55912,0.345558 -3.68469,-7.642115 -3.67969,-9.404297 0.002,-0.577499 -0.40148,-1.048828 -0.89648,-1.048828 -0.495,0 -0.90039,-0.421071 -0.90039,-0.935547 0,-0.514488 0.27156,-0.768405 0.60156,-0.564453 0.33,0.203952 0.59961,0.07293 0.59961,-0.291016 0,-0.363942 -0.46739,-0.583298 -1.03906,-0.486328 -0.74124,0.12573 -1.46094,-0.72659 -2.50586,-2.974609 -0.91119,-1.960302 -1.79847,-3.09469 -2.34766,-3 -0.48571,0.08375 -0.99877,-0.253047 -1.14062,-0.748047 -0.22927,-0.799998 -0.18882,-0.799998 0.37695,0 0.76161,1.076928 0.86406,0.05837 0.11328,-1.126953 -0.28805,-0.454656 -0.79341,-0.660756 -1.12304,-0.457032 -0.32964,0.20373 -0.56278,-0.09988 -0.51758,-0.673828 0.0455,-0.577158 -0.27147,-0.968143 -0.71094,-0.876953 -0.43707,0.09067 -0.62577,-0.111032 -0.41797,-0.447266 0.2078,-0.336234 -0.35438,-1.571875 -1.25,-2.746093 -1.2372,-1.622046 -1.76289,-1.947204 -2.18945,-1.353516 -0.42174,0.58701 -0.48507,0.540471 -0.25391,-0.189453 0.16923,-0.534413 -0.22802,-1.852974 -0.88281,-2.929688 -0.99723,-1.639804 -1.03369,-1.897911 -0.2207,-1.585937 0.56501,0.216825 0.81887,0.124594 0.60547,-0.220703 -0.20161,-0.32622 -0.7122,-0.59375 -1.13282,-0.59375 -0.42061,0 -1.92807,-1.074512 -3.35156,-2.388672 -1.42349,-1.314162 -3.42726,-2.52894 -4.45117,-2.699219 C 123.79831,3.636942 115.14086,3.30212 111.72454,3.302754 Z M 88.492113,4.201172 c -0.33,0 -0.59961,0.269609 -0.59961,0.599609 0,0.33 0.26961,0.599609 0.59961,0.599609 0.33,0 0.59961,-0.269609 0.59961,-0.599609 0,-0.33 -0.26961,-0.599609 -0.59961,-0.599609 z m 33.544917,0.02539 c 0.007,0.0431 -0.16008,0.277978 -0.49804,0.72461 -0.68783,0.908986 -0.64252,1.050834 0.33007,1.052734 1.32674,0.0026 3.90506,1.566944 6.82227,4.140625 1.155,1.018986 2.3044,1.854689 2.55469,1.855469 0.82758,0.0026 -0.88867,-2.179855 -2.63477,-3.34961 -2.31707,-1.552254 -2.19464,-2.39271 0.15039,-1.033203 1.877,1.088178 4.73791,4.324181 4.7207,5.339844 -0.005,0.298851 -0.2594,0.145599 -0.5664,-0.339844 -0.30701,-0.485438 -0.75236,-0.689045 -0.98828,-0.453125 -0.23592,0.23592 0.0631,0.972673 0.66406,1.636719 0.60095,0.664044 0.97222,1.3286 0.82422,1.476562 -0.14796,0.147972 -0.57251,-0.216726 -0.94336,-0.810546 -0.37085,-0.59382 -2.74345,-2.636415 -5.27148,-4.539063 -3.78239,-2.846711 -4.89463,-3.39998 -6.2793,-3.123047 -1.00881,0.201763 -2.13279,-0.0034 -2.80664,-0.513672 -1.04979,-0.794983 -1.00225,-0.853263 0.70703,-0.871093 1.0065,-0.01049 2.20734,-0.357032 2.66992,-0.769532 0.35779,-0.319023 0.53823,-0.466925 0.54492,-0.423828 z m 1.55469,0.642578 c 0.66,-0.02784 1.60461,0.211357 2.09961,0.53125 1.05128,0.679394 0.32258,0.679394 -1.79883,0 -1.23573,-0.39575 -1.28936,-0.48955 -0.30078,-0.53125 z m -16.99219,0.279297 c -0.48129,-0.02965 -0.90437,0.08433 -1.04297,0.308594 C 105.37175,5.756051 105.9113,6 106.75578,6 c 1.83843,0 1.98687,-0.34171 0.33594,-0.773438 -0.16492,-0.04313 -0.33176,-0.06824 -0.49219,-0.07813 z m 11.32031,2.052735 c 0.40218,0 0.53952,0.418237 0.32227,0.984375 -0.316,0.823483 -0.22885,0.860632 0.53516,0.226562 0.52056,-0.432034 0.91406,-0.495549 0.91406,-0.148437 0,0.3351 -0.42723,0.772349 -0.94922,0.972656 -0.52199,0.200306 -1.1291,0.353054 -1.34961,0.339844 -0.71283,-0.04271 -3.81479,-1.860995 -3.57812,-2.097657 0.42196,-0.421963 2.87695,0.454519 2.87695,1.027344 0,0.310987 0.27398,0.39673 0.60937,0.189453 0.33538,-0.207279 0.4555,-0.628349 0.26563,-0.935547 -0.18985,-0.307197 -0.0313,-0.558593 0.35351,-0.558593 z M 77.091723,7.251953 c -0.495,-0.01814 -1.30578,0.228935 -1.80078,0.548828 -1.09678,0.708793 -0.14945,0.708793 1.5,0 0.79124,-0.340009 0.89422,-0.527078 0.30078,-0.548828 z m 11.7168,0.132812 c -0.16945,-0.01021 -0.37025,-0.0093 -0.59766,0.0039 -1.51609,0.08808 -4.2303,0.683194 -6.91992,1.607421 -2.145,0.737083 -4.70922,2.132275 -5.69922,3.101563 l -1.80078,1.761719 2.86523,-1.587891 c 1.57502,-0.873747 3.25866,-1.437496 3.74219,-1.251953 0.5027,0.192907 0.81803,0.0259 0.73633,-0.390625 -0.0785,-0.400624 0.32663,-0.648844 0.90039,-0.552734 0.57377,0.09611 1.58627,-0.117438 2.25,-0.472657 0.84079,-0.449978 1.20703,-0.45171 1.20703,-0.0098 0,0.644826 -5.2079,4.207031 -6.15039,4.207031 -1.96232,0 -10.05074,4.976076 -10.05078,6.183594 -3e-5,0.584826 3.3884,-1.259697 5.08008,-2.765625 0.66823,-0.594846 1.71575,-0.949197 2.32812,-0.789063 1.22508,0.32037 3.99219,-0.731944 3.99219,-1.517578 0,-0.272604 0.92536,-0.881646 2.05469,-1.353516 1.12933,-0.471865 2.50973,-1.55564 3.06836,-2.408203 0.85291,-1.301713 1.46563,-1.548828 3.82617,-1.548828 1.54604,0 3.06736,0.238712 3.38086,0.53125 0.3135,0.292531 1.10953,0.312307 1.76953,0.04297 1.2,-0.489704 1.2,-0.489817 0,-0.591797 -1.01936,-0.08663 -0.97342,-0.175913 0.30078,-0.583984 1.11152,-0.355971 0.51988,-0.494743 -2.28516,-0.539063 -2.29359,-0.03624 -3.643,-0.289878 -3.42382,-0.644531 0.16261,-0.263118 -0.0659,-0.400997 -0.57422,-0.431641 z m 33.017577,1.0625 c -0.34944,0.02605 -0.29542,0.18443 0.11914,0.351563 0.41453,0.167132 0.59278,0.565195 0.39648,0.882812 -0.19629,0.317618 -0.22902,0.909877 -0.0723,1.31836 0.15675,0.408483 0.83651,0.74414 1.50977,0.74414 0.67326,0 1.08235,-0.231889 0.9082,-0.513671 -0.17415,-0.281785 -0.65002,-0.384552 -1.05664,-0.228516 -0.40662,0.156035 -0.73828,-0.06988 -0.73828,-0.501953 0,-0.439534 0.4177,-0.655435 0.94922,-0.492188 0.67683,0.207876 0.61494,0.0179 -0.21484,-0.658203 -0.64057,-0.521939 -1.45135,-0.928394 -1.80078,-0.902344 z m -32.154297,3.855469 c -0.0234,-0.01404 -0.1143,0.0012 -0.2793,0.05273 -0.66,0.206229 -2.07789,0.629731 -3.15039,0.939453 -1.0725,0.309722 -1.95117,0.820281 -1.95117,1.134765 0,0.31449 -0.52935,0.570313 -1.17774,0.570313 -0.64839,0 -1.46904,0.541172 -1.82226,1.201172 -0.65392,1.221864 0.17477,1.773683 0.90039,0.599609 0.71371,-1.154802 1.44861,-0.581289 2.05078,1.599609 0.47498,1.720242 0.42586,2.34054 -0.22851,2.84961 -0.46012,0.357942 -0.92345,1.32539 -1.0293,2.15039 -0.12084,0.941922 -0.53136,1.446149 -1.10352,1.355469 -0.60635,-0.09611 -1.27244,0.873933 -1.99218,2.900391 -1.01624,2.86131 -3.35946,6.422356 -6.3086,9.58789 -0.70849,0.760482 -1.28906,1.57869 -1.28906,1.81836 0,0.47061 -5.61497,4.738281 -6.23438,4.738281 -0.47087,0 -0.0709,-5.960262 0.48828,-7.271484 0.28932,-0.678372 0.0432,-1.067675 -0.81835,-1.292969 -1.39859,-0.365742 -1.65533,-0.100885 -2.0625,2.144531 -0.15927,0.878328 -0.71252,2.203881 -1.23047,2.94336 -0.51795,0.739474 -0.94141,1.945596 -0.94141,2.68164 0,1.574946 -1.19037,4.394531 -1.85547,4.394531 -0.76359,0 -1.28648,-2.401604 -0.6914,-3.177734 0.30414,-0.39666 0.91267,-2.692127 1.35156,-5.099609 0.43889,-2.407488 1.02264,-4.516059 1.29687,-4.685547 0.27424,-0.169483 0.49805,-0.781066 0.49805,-1.35937 0,-1.447097 2.43044,-4.000365 2.97266,-3.123047 0.22858,0.369852 0.72318,-0.662187 1.09961,-2.292969 0.56679,-2.455452 0.5254,-3.28166 -0.23829,-4.8125 C 65.418513,21.832915 64.873123,21 64.712813,21 c -0.16033,0 -0.1431,0.242605 0.0391,0.537109 0.18201,0.294504 -0.30796,1.982004 -1.08789,3.75 -0.77992,1.767996 -1.61407,4.119653 -1.85547,5.226563 -0.24139,1.106916 -0.93458,3.131916 -1.53907,4.5 -0.60449,1.36809 -1.28388,3.884673 -1.50976,5.591797 -0.28121,2.125308 -0.64704,3.012105 -1.16211,2.814453 -0.78136,-0.299832 -1.63781,2.450071 -0.9707,3.117187 0.41998,0.41997 0.48116,0.756789 0.60937,3.414063 0.0889,1.8423 0.14234,1.88531 0.96875,0.792968 1.40052,-1.851204 1.65819,-0.683517 0.35938,1.628907 -1.17685,2.095284 -1.08824,3.289494 0.17187,2.304684 0.36037,-0.28163 1.43163,-0.69656 2.38086,-0.923825 1.36654,-0.327174 1.65748,-0.23328 1.39258,0.457035 -0.18402,0.4795 -0.15054,1.05655 0.0742,1.28125 0.22476,0.2247 0.47644,2.47774 0.56054,5.00781 0.0841,2.53006 0.19375,5.005 0.24415,5.5 0.0503,0.495 0.05,1.83844 -0.002,2.98437 -0.0879,1.93733 -0.15038,2.00086 -0.89453,0.90039 -1.39439,-2.06204 -1.52956,-3.08806 -0.63086,-4.82031 0.48124,-0.92758 0.77299,-2.10903 0.64844,-2.625 -0.1447,-0.59949 -0.39289,-0.34343 -0.6875,0.71094 -0.25358,0.9075 -0.83569,1.65039 -1.29492,1.65039 -0.45922,0 -0.83594,0.26961 -0.83594,0.59961 0,0.33 0.21286,0.59961 0.47266,0.59961 0.25981,0 0.51736,0.87867 0.57226,1.95117 0.0889,1.73767 -0.0362,1.60585 -1.15234,-1.20117 -1.19649,-3.00921 -2.77618,-4.46175 -2.11914,-1.94922 0.1726,0.66 0.10559,1.19922 -0.15039,1.19922 -0.53411,0 -3.78461,-7.23687 -3.41602,-7.60547 0.13376,-0.13375 0.69402,0.88098 1.24414,2.25586 1.24609,3.11429 1.85594,2.78213 0.7461,-0.40625 -0.88461,-2.54126 -1.82495,-10.999596 -1.67774,-15.085938 0.1282,-3.55854 1.60071,-9.540575 2.79883,-11.369141 0.5537,-0.84504 0.73599,-1.369799 0.40625,-1.166015 -0.32974,0.20379 -0.0166,-1.314342 0.69531,-3.375 1.35501,-3.92238 4.18113,-8.80793 5.56836,-9.626954 C 64.766353,18.979467 64.713023,18 63.591683,18 c -0.495,0 -0.90039,0.288467 -0.90039,0.640625 0,0.352164 -0.94461,1.531788 -2.09961,2.621094 -1.155,1.089303 -2.09961,2.404768 -2.09961,2.923828 0,0.51906 -0.26961,1.110501 -0.59961,1.314453 -0.33,0.203952 -0.62244,0.962523 -0.64844,1.685547 -0.0273,0.75678 -0.18358,0.971633 -0.36914,0.505859 -0.31407,-0.788358 -1.94405,2.257863 -2.87695,5.375 -0.42044,1.404846 -0.41,1.409037 0.53516,0.234375 0.92632,-1.151237 0.94134,-1.132625 0.37109,0.464844 -1.01527,2.844132 -1.89634,9.523958 -1.90234,14.43164 -0.005,3.705192 -0.17622,4.629227 -0.81836,4.382813 -1.21168,-0.464964 -1.36416,0.717728 -0.57813,4.484373 1.04099,4.98846 2.98976,8.54079 6.97461,12.71485 2.65577,2.78186 3.785,4.5147 4.47266,6.86328 0.50598,1.72816 0.74228,3.43033 0.52539,3.78125 -0.21688,0.35093 0.004,1.50073 0.49023,2.55664 1.28956,2.80059 1.82216,9.87266 0.93555,12.41992 -0.84084,2.41578 -1.62271,3.33178 -3.25391,3.81055 -0.63666,0.1869 -0.34742,0.24151 0.64258,0.12109 0.99,-0.12042 2.44809,-0.42209 3.24219,-0.66992 1.02709,-0.32054 1.32095,-0.2499 1.01562,0.24414 -0.50293,0.81377 1.49409,0.96825 2.3711,0.18359 0.3135,-0.28049 2.18992,-1.40089 4.16992,-2.49023 l 3.59961,-1.98047 -1.94922,1.79492 c -1.0725,0.98676 -1.94922,1.94766 -1.94922,2.13672 0,0.18906 1.05562,0.52225 2.3457,0.74023 2.6135,0.44154 4.31772,-0.24525 9.05469,-3.64843 2.64626,-1.90114 2.87849,-1.96541 3.16211,-0.88086 0.34745,1.32865 -1.52719,3.37864 -2.52539,2.76172 -0.35079,-0.21682 -0.9375,-0.20815 -1.30273,0.0176 -0.46784,0.28915 -0.43402,0.55164 0.11132,0.88868 0.54157,0.33471 0.15419,0.74695 -1.2871,1.375 -1.65817,0.722559 -1.80231,0.907859 -0.74415,0.947259 0.72303,0.0269 1.46836,-0.20259 1.65821,-0.50976 0.18984,-0.307379 0.98382,-0.442209 1.76367,-0.300789 0.80523,0.146009 1.74053,-0.13226 2.16406,-0.64257 0.41019,-0.49425 1.16467,-0.89844 1.67578,-0.89844 1.13332,0 3.12305,-1.71823 3.12305,-2.69727 0,-0.39189 0.94461,-1.22174 2.09961,-1.84375 1.155,-0.62201 2.09961,-1.35568 2.09961,-1.63086 0,-0.59079 5.233027,0.0826 6.749997,0.86915 0.5775,0.29944 1.05078,0.33135 1.05078,0.0703 0,-0.26106 0.83917,-0.8466 1.86523,-1.30078 1.48956,-0.65934 1.96084,-0.67213 2.33399,-0.0684 0.25704,0.41591 0.76591,0.5705 1.13281,0.34375 0.38748,-0.23948 0.66797,0.007 0.66797,0.58789 0,0.66434 -0.3174,0.87647 -0.94727,0.63476 -1.31728,-0.50548 -3.85351,0.2129 -3.85351,1.0918 0,0.39967 -0.85267,1.11389 -1.89649,1.58594 -1.04382,0.47206 -2.59749,1.7871 -3.451167,2.92383 -0.85368,1.136729 -1.14734,1.838859 -0.65234,1.558589 0.495,-0.28027 0.1575,0.28903 -0.75,1.26562 -1.92171,2.06802 -2.04468,2.60645 -0.59961,2.61915 0.62563,0.005 0.79293,0.18656 0.41406,0.44921 -1.25714,0.87152 -7.29968,10.70378 -8.38281,13.64063 -0.60854,1.65 -1.73092,3.76444 -2.49414,4.69726 -1.52317,1.86165 -1.80592,3.73262 -0.63672,4.20704 0.58632,0.23789 0.57556,0.42726 -0.0508,0.86718 -0.44069,0.30952 -0.7782,0.73667 -0.75,0.94727 0.15857,1.18488 -0.0813,2.3876 -0.3457,1.73242 -0.16644,-0.4125 -0.88852,-0.71994 -1.60352,-0.68164 -1.01467,0.0543 -1.06954,0.13153 -0.25,0.3457 1.15654,0.30223 1.18776,0.36229 1.35547,2.73828 l 0.11523,1.65235 -1.85937,-1.37305 c -1.02326,-0.75532 -2.53627,-1.69871 -3.36127,-2.09763 -2.32439,-1.12396 -3.75094,-2.12788 -4.85352,-3.41602 -0.81932,-0.95719 -1.65764,-1.15465 -4.41992,-1.03906 -1.94227,0.0813 -3.26521,-0.094 -3.07226,-0.40625 0.18633,-0.30147 0.001,-0.67739 -0.41211,-0.83594 -0.90025,-0.34545 -2.72314,-5.25291 -3.10742,-8.36719 -0.66462,-5.38632 -1.683,-9.70448 -2.47657,-10.49804 -0.47204,-0.47204 -0.85742,-1.37377 -0.85742,-2.00391 0,-0.72729 -0.55938,-1.28587 -1.5293,-1.5293 -2.04194,-0.51249 -2.20944,-0.22375 -1.55664,2.68164 0.4574,2.03573 0.39962,2.48047 -0.32617,2.48047 -0.66996,0 -0.78794,0.43449 -0.48828,1.79883 0.26655,1.21357 0.16137,1.80078 -0.32031,1.80078 -0.49594,0 -0.59307,0.68815 -0.31836,2.25 0.57637,3.27697 3.43043,11.81507 4.02734,12.04883 0.69322,0.2715 0.6514,1.90039 -0.0488,1.90039 -0.30777,0 -0.74248,0.60711 -0.96679,1.34961 -0.22431,0.7425 -1.08546,2.07542 -1.91406,2.96094 -1.25548,1.3417 -1.4326,1.9413 -1.05665,3.59961 0.24813,1.09448 0.41063,3.84528 0.36133,6.11328 -0.0524,2.41422 0.20332,4.47788 0.61719,4.97656 1.02925,1.24017 -0.0887,2.08632 -3.01953,2.28516 -1.35309,0.0918 -2.79777,0.43634 -3.21094,0.76562 -0.41318,0.32929 -3.04656,0.78582 -5.85156,1.01563 -6.14399,0.50339 -10.68416,1.52527 -9.51758,2.14257 1.94279,1.02803 8.73415,1.16756 13.04492,0.26758 2.43437,-0.50824 4.53578,-0.81382 4.66992,-0.67969 0.13413,0.13413 -0.74703,1.23336 -1.95703,2.44336 -2.37534,2.37539 -2.34914,3.36657 0.0586,2.26954 2.17909,-0.99287 1.84168,0.0899 -0.61133,1.96093 -1.16258,0.88674 -2.71625,2.23262 -3.45117,2.99219 C 46.103043,164.3353 32.889223,174 32.300733,174 c -0.19229,0 -2.41101,1.52916 -4.92968,3.39648 -8.469884,6.27949 -10.573193,7.81523 -12.080081,8.82227 -0.825,0.55133 -2.983828,2.33475 -4.798828,3.96289 C 5.0789976,195.03748 1.4506676,198 0.91987762,198 c -0.274626,0 -0.660472,0.42034 -0.857422,0.93359 -0.253566,0.66078 0.253632,1.18909 1.73632798,1.8086 2.259042,0.94389 2.853071,1.79732 0.894531,1.28515 -0.659675,-0.17251 -1.322878,-0.11539 -1.472656,0.12696 -0.29016598,0.4695 7.553461,2.47371 9.5703134,2.44531 0.995238,-0.014 1.047205,-0.11723 0.300781,-0.59961 -0.495,-0.31989 -1.3717194,-0.58485 -1.9492194,-0.58984 -0.5775,-0.005 -1.597231,-0.55622 -2.265625,-1.22461 l -1.214844,-1.21485 1.513672,0.37891 c 1.114956,0.27984 1.515625,0.14338 1.515625,-0.51758 0,-0.54982 -0.805621,-1.04839 -2.078125,-1.28711 -2.742894,-0.51457 -3.240565,-1.48384 -1.466796,-2.85742 0.795005,-0.61564 2.525703,-2.06485 3.845703,-3.2207 2.0385604,-1.78506 8.9684654,-7.2655 14.7871094,-11.69336 3.30126,-2.51218 5.71598,-4.17612 8.91211,-6.14258 1.815,-1.11671 5.84902,-3.95065 8.96289,-6.29688 3.11387,-2.34624 5.8735,-4.13487 6.13281,-3.97461 0.68401,0.42274 3.36181,-1.32924 7.4043,-4.84375 1.32,-1.14759 2.87367,-2.09356 3.45117,-2.10156 0.5775,-0.008 1.04883,-0.38724 1.04883,-0.84375 0,-0.45651 0.60711,-1.0366 1.34961,-1.28906 0.7425,-0.25245 1.89078,-0.6413 2.55078,-0.86524 0.76041,-0.258 1.72412,-0.005 2.63086,0.68946 0.787,0.60291 1.93972,1.0957 2.56055,1.0957 0.71945,0 1.50493,0.81596 2.16797,2.25 0.57215,1.2375 1.24273,2.33922 1.49023,2.44922 0.2475,0.11001 0.45117,0.78749 0.45117,1.50586 0,0.71838 0.68276,2.04306 1.51758,2.94336 1.39943,1.50922 2.27703,1.90371 5.2832,2.37695 0.79511,0.12516 0.0854,0.88811 -2.55078,2.74414 -2.00818,1.41387 -3.65039,2.83176 -3.65039,3.15039 0,0.92329 1.46824,0.67226 2.75391,-0.4707 0.6496,-0.5775 2.11855,-1.56993 3.26367,-2.20508 1.14511,-0.63515 2.24835,-1.40109 2.45117,-1.70312 0.20283,-0.30204 1.0672,0.14922 1.92188,1.0039 0.85468,0.85468 2.12111,1.55469 2.8125,1.55469 2.07577,0 4.75473,-1.72249 5.15429,-3.31445 0.43119,-1.718 -1.09281,-4.48633 -2.4707,-4.48633 -0.48739,0 -0.85551,-0.20172 -0.81641,-0.44922 0.21597,-1.36779 -0.31025,-1.26199 -2.55468,0.51562 -2.17797,1.725 -2.38991,1.79468 -1.73047,0.5625 1.51336,-2.82773 -1.85984,-8.67733 -3.80664,-6.60156 -0.50666,0.5402 -0.49715,0.7896 0.0371,0.98633 0.39391,0.14507 0.57658,0.6284 0.40625,1.07227 -0.17537,0.45701 0.20616,0.97007 0.8789,1.18359 1.20601,0.38277 2.2009,2.02762 1.59375,2.63477 -0.18292,0.18292 -1.12877,-0.1371 -2.10351,-0.7129 -0.97474,-0.57578 -2.11365,-1.00196 -2.53125,-0.94726 -2.16401,0.28365 -2.51123,-0.10627 -1.07618,-1.20898 0.81578,-0.62685 1.7333,-0.98511 2.04102,-0.79493 0.30769,0.19017 0.42487,0.10123 0.25977,-0.19726 -0.1651,-0.29849 -0.46785,-1.01508 -0.67383,-1.59375 -0.35231,-0.98977 -0.4893,-0.98249 -2.30078,0.11914 -1.05909,0.64407 -2.14715,1.0326 -2.41797,0.86523 -0.27084,-0.16738 -0.49221,-1.59187 -0.49221,-3.16601 l 0,-2.86133 3.75,0.50195 c 2.0625,0.27651 10.5,2.82482 18.75,5.66211 8.249997,2.83729 15.607107,5.29655 16.349607,5.46485 0.7425,0.16829 1.35533,0.61229 1.36133,0.98632 0.006,0.37403 2.09882,1.32774 4.65039,2.1211 2.55158,0.79337 4.90828,1.62834 5.23828,1.85351 0.33,0.22518 2.15846,1.02632 4.0625,1.78125 1.90403,0.75494 3.67366,1.75234 3.93359,2.2168 0.25992,0.46445 1.53685,1.01315 2.83789,1.21875 1.30104,0.20559 2.54408,0.64589 2.76172,0.97851 0.45465,0.69488 -4.80026,5.8086 -5.96875,5.8086 -0.42635,0 -2.47795,1.75539 -4.56054,3.90039 -2.08258,2.145 -3.94274,3.90039 -4.13282,3.90039 -0.19008,0 -0.43236,-0.40322 -0.53906,-0.89648 -0.12576,-0.58141 -0.58181,-0.21524 -1.29687,1.04101 l -1.10352,1.9375 1.25391,-1.13476 c 0.68915,-0.62366 1.25195,-0.85665 1.25195,-0.51758 0,1.01816 -10.90533,10.97543 -11.57031,10.56445 -0.35453,-0.21911 -0.43324,-0.0844 -0.18555,0.31641 0.258,0.41745 -1.44293,2.626 -4.25586,5.52343 -4.86889,5.01515 -5.56862,5.9668 -4.38477,5.9668 0.88907,0 -1.13424,2.43648 -7.863277,9.4668 -6.34887,6.63314 -8.01904,8.79489 -7.47461,9.67578 0.64185,1.03854 1.14126,0.78629 2.56641,-1.29688 0.73218,-1.07024 2.48757,-3.17614 3.90039,-4.67968 4.94392,-5.26138 7.987237,-8.69038 10.355467,-11.66602 1.31319,-1.65 2.66319,-3.29378 3,-3.65234 0.33681,-0.35856 2.63828,-2.91334 5.11328,-5.67774 7.43021,-8.29902 28.3051,-28.51027 26.77149,-25.91992 -0.2806,0.47394 -0.0861,0.75 0.52734,0.75 0.53395,0 0.81962,0.24382 0.63477,0.54297 -0.18488,0.29914 0.31884,0.2351 1.11914,-0.14258 0.93709,-0.44223 1.21035,-0.83767 0.76757,-1.11133 -0.46571,-0.28782 -0.35411,-0.55372 0.34571,-0.82226 1.20273,-0.46154 1.37061,-1.8202 0.2832,-2.29297 -0.4125,-0.1794 0.0309,-0.27047 0.98633,-0.20117 2.52908,0.18356 2.59422,-1.17693 0.10547,-2.2168 -1.17784,-0.49213 -2.14258,-1.14558 -2.14258,-1.45117 0,-0.30559 -0.87672,-0.72676 -1.94922,-0.93555 -1.0725,-0.20879 -4.11,-1.21161 -6.75,-2.22851 -2.64,-1.01689 -5.74539,-2.1953 -6.90039,-2.61914 -7.63331,-2.80118 -12.57499,-4.8049 -17.69922,-7.17579 -5.10635,-2.36263 -10.325087,-4.54678 -10.874997,-4.55078 -0.28873,-0.002 -1.2631,-0.48985 -2.16406,-1.08398 -1.62235,-1.06985 -1.57053,-1.07854 5.279287,-0.96289 5.74236,0.0969 7.12174,0.30104 8.125,1.20898 1.03656,0.93806 1.28778,0.9703 1.76563,0.21875 0.3064,-0.48188 0.43242,-1.21445 0.28125,-1.62695 -0.33869,-0.92415 1.85268,-1.0162 2.41797,-0.10156 0.23885,0.38647 1.04024,0.47784 1.98437,0.22461 0.8715,-0.23375 3.06977,-0.50773 4.88477,-0.60743 1.815,-0.0997 7.08117,-0.59107 11.70117,-1.09375 4.62,-0.50267 15.14844,-1.06605 23.39844,-1.25 8.25,-0.18393 15.74289,-0.48785 16.65039,-0.67578 0.9075,-0.18793 1.64126,-0.11747 1.63086,0.15625 -0.0374,0.9821 -2.73694,3.53355 -5.83008,5.50977 -3.3546,2.14326 -3.55671,2.44135 -2.42969,3.56836 0.56,0.56 0.56,0.7207 0,0.7207 -0.93403,0 -0.89433,1.82262 0.0684,3.08789 0.93027,1.22265 4.86734,2.91211 6.78516,2.91211 0.78471,0 1.42578,0.21905 1.42578,0.48828 0,0.91082 4.4882,3.01929 6.95117,3.26563 1.45451,0.14545 2.97564,0.77252 3.74805,1.54492 1.87286,1.87287 7.13757,1.68959 7.50195,-0.26172 0.0543,-0.29088 0.46257,-0.44608 0.90821,-0.34375 0.44767,0.10281 0.63267,-0.0994 0.41406,-0.45312 -0.57261,-0.9265 -2.49377,-0.78554 -3.53906,0.25976 -1.03652,1.0365 -2.54121,1.17677 -3.08985,0.28906 -0.20727,-0.3354 -0.6156,-0.46282 -0.90625,-0.2832 -0.29064,0.17963 -0.82012,-0.21631 -1.17578,-0.88086 -0.50449,-0.94265 -0.38034,-1.73008 0.56445,-3.58203 0.66607,-1.3056 1.0485,-2.79812 0.84961,-3.31641 -0.19888,-0.51829 -0.0233,-1.35083 0.39063,-1.84961 1.11629,-1.34505 0.175,-1.83767 -1.17578,-0.61523 -1.14257,1.03401 -2.79536,0.79576 -2.11524,-0.30469 0.18985,-0.30719 0.0585,-0.55859 -0.29101,-0.55859 -0.34947,0 -0.63477,0.40872 -0.63477,0.9082 0,0.49947 -0.32269,1.42557 -0.7168,2.05664 -0.55571,0.89043 -0.55418,1.50287 0.008,2.73633 0.96884,2.12638 0.65468,2.44705 -2.55664,2.61328 -2.12838,0.11018 -2.73438,-0.0632 -2.73438,-0.78515 0,-0.51021 -0.22515,-0.92774 -0.5,-0.92774 -0.58224,0 -0.53432,-1.8142 0.0742,-2.79883 0.22998,-0.37212 -0.008,-0.84036 -0.53125,-1.04101 -1.11563,-0.42811 -2.20392,0.0959 -1.74414,0.83984 0.17576,0.2844 -0.004,0.71622 -0.40039,0.96094 -0.50253,0.31059 -0.3684,0.58327 0.4414,0.90039 1.06597,0.41739 1.05094,0.45729 -0.18945,0.49609 -0.7425,0.0232 -1.35156,-0.21941 -1.35156,-0.53906 0,-0.31968 -0.38049,-0.43633 -0.8457,-0.25781 -0.46522,0.17852 -1.65986,-0.0961 -2.65625,-0.61133 -2.2264,-1.15132 -3.05106,-3.25962 -1.66993,-4.26953 0.53544,-0.39152 0.97266,-1.05219 0.97266,-1.4668 0,-0.45439 0.46923,-0.6311 1.17969,-0.44531 0.68828,0.17999 1.12443,0.0282 1.04883,-0.36524 -0.0712,-0.37082 0.48306,-0.76692 1.23046,-0.88085 0.74739,-0.11392 1.20051,-0.4636 1.00782,-0.77539 -0.1927,-0.3118 -0.64181,-0.38544 -1,-0.16407 -0.38869,0.24023 -0.48014,0.12243 -0.22461,-0.29101 0.23546,-0.38099 0.63967,-0.69141 0.89648,-0.69141 0.6601,0 5.46094,-4.64128 5.46094,-5.2793 0,-0.29025 0.72788,-0.86042 1.61719,-1.26562 1.44438,-0.6581 1.73194,-0.58773 2.6875,0.6543 0.58835,0.76473 1.07503,1.60394 1.08203,1.86523 0.02,0.71068 1.93062,2.5679 3.46289,3.36523 0.7425,0.38636 1.35156,0.93945 1.35156,1.22852 0,0.44046 -7.09442,1.23052 -7.69922,0.85742 -0.10924,-0.0674 0.11458,-0.70925 0.49805,-1.42578 0.98038,-1.83186 0.22495,-2.26715 -1.22852,-0.70703 -0.84711,0.90927 -1.98549,1.32755 -3.74414,1.37695 -2.35313,0.0661 -2.40296,0.10095 -0.72656,0.50586 1.81393,0.43812 1.48648,0.82522 -1.20117,1.41992 -1.10503,0.24453 -1.09656,0.26989 0.10937,0.33399 0.76476,0.0406 1.47739,0.59424 1.71094,1.33008 0.38739,1.22057 0.45776,1.20463 2.28906,-0.53516 1.79112,-1.70204 2.13925,-1.79244 6.5918,-1.71094 4.49828,0.0823 4.77412,0.16871 6.44141,2.03516 1.7049,1.90856 2.95898,2.50054 2.95898,1.39648 0,-0.3046 -1.03365,-1.58671 -2.29492,-2.84961 C 187.50277,153.69786 184.79614,150 185.62122,150 c 0.36916,0 0.66992,0.27156 0.66992,0.60156 0,0.33 0.47328,0.61135 1.05078,0.62695 1.36577,0.0369 6.61877,3.05069 12.33984,7.07813 l 4.55469,3.20508 -1.34375,2.19531 c -0.73895,1.20681 -1.66486,2.93625 -2.05859,3.84375 -0.69081,1.59218 -1.42003,1.8916 -4.09375,1.68555 -1.33531,-0.10292 -2.96067,1.37544 -2.43946,2.21875 0.17223,0.27869 1.35023,0.56776 2.61719,0.64258 1.98501,0.11711 2.65256,-0.20923 4.82617,-2.36133 1.38735,-1.37362 3.19471,-2.57201 4.01563,-2.66211 0.82092,-0.0901 2.37047,-0.78877 3.44336,-1.55274 2.20131,-1.56747 2.67302,-1.70315 6.58789,-1.88867 1.53964,-0.073 2.75392,-0.40242 2.69922,-0.73242 -0.0546,-0.33 0.57734,-0.59961 1.40234,-0.59961 0.825,0 1.67928,-0.25181 1.90039,-0.55859 0.22111,-0.30678 0.80454,-0.6155 1.29492,-0.6875 0.49038,-0.072 1.38955,-0.43251 1.99805,-0.80079 0.92704,-0.56107 0.82713,-0.60561 -0.60937,-0.27929 -2.53674,0.57626 -2.87076,-0.62728 -1.2168,-4.36719 1.63636,-3.7001 1.80621,-4.54477 0.57812,-2.87109 -0.75432,1.02801 -0.77383,0.8627 -0.16797,-1.41407 0.52538,-1.97422 0.78527,-2.32618 1.11133,-1.5 0.36519,0.92533 0.43265,0.88577 0.46875,-0.27148 0.0232,-0.7425 -0.21942,-1.34961 -0.53906,-1.34961 -0.31961,0 -0.42628,-0.40539 -0.23633,-0.90039 0.18996,-0.495 0.94695,-0.90039 1.68164,-0.90039 0.7347,0 1.48579,-0.14987 1.66993,-0.33399 0.71511,-0.7151 -0.32106,-2.60685 -1.52344,-2.78124 -0.88647,-0.12859 -1.38648,-0.7694 -1.66406,-2.13477 -0.21815,-1.07299 -1.53767,-3.23377 -2.9336,-4.80078 -1.39593,-1.56702 -3.73337,-4.19961 -5.19531,-5.84961 -1.46193,-1.65 -3.32496,-3.73056 -4.13867,-4.625 -0.81371,-0.89444 -1.47852,-1.81756 -1.47852,-2.05078 0,-0.72695 -5.656,-5.58242 -6.52734,-5.60352 -0.90221,-0.0219 -7.87305,-7.0394 -7.87305,-7.92578 0,-0.30049 -0.3375,-0.50282 -0.75,-0.44922 -1.64785,0.21397 -2.13804,-0.1147 -2.52734,-1.69531 -0.49787,-2.02139 -5.78499,-7.2228 -6.9668,-6.85352 -0.47086,0.14713 -0.65252,0.0511 -0.4043,-0.21484 0.50721,-0.54334 -1.20417,-2.681639 -2.14648,-2.681639 -0.33518,0 -2.01416,-1.48383 -3.73047,-3.29883 -3.06953,-3.24605 -4.47461,-4.04323 -4.47461,-2.53711 0,1.21812 11.41763,12.000839 12.7832,12.072269 0.79091,0.0414 1.38042,0.62218 1.64844,1.625 0.22948,0.85866 2.95796,4.09983 6.06445,7.20117 6.35349,6.34299 6.42673,6.42777 12.20899,14.47461 2.30701,3.21054 4.39703,5.84261 4.64453,5.84961 0.89685,0.0252 0.40727,-1.06928 -1.72461,-3.86133 -1.57825,-2.06696 -1.83633,-2.6663 -0.94531,-2.18945 2.17886,1.1661 3.84323,3.80142 3.49609,5.53711 -0.22045,1.10226 0.0347,1.91298 0.83008,2.63281 0.63194,0.57189 1.46887,2.0192 1.86133,3.2168 0.39246,1.19759 1.04852,2.71695 1.45703,3.37695 1.62025,2.61774 2.26891,7.06439 1.5332,10.51562 -1.44256,6.76616 -1.84562,7.78516 -3.08028,7.78516 -0.64728,0 -1.17773,-0.24517 -1.17773,-0.54492 0,-0.29975 -1.66939,-2.20001 -3.71094,-4.22266 -3.53961,-3.50682 -10.72141,-7.78945 -13.86718,-8.26953 -1.92978,-0.2945 -1.94364,-0.66798 -0.0547,-1.40234 0.95326,-0.3706 2.40742,-0.96667 3.23242,-1.32422 l 1.5,-0.65039 -1.48242,-0.25196 c -1.68573,-0.2865 -4.32121,-1.93359 -3.09375,-1.93359 0.43499,0 1.5219,-0.52098 2.41406,-1.15625 0.89217,-0.63528 3.22763,-1.43094 5.19141,-1.76953 l 3.57031,-0.61523 -4.92188,0.16992 c -2.70771,0.0934 -4.78493,-0.0555 -4.61523,-0.33008 0.16969,-0.27456 -0.006,-0.5 -0.39063,-0.5 -0.38474,0 -0.54542,-0.40344 -0.35546,-0.89844 0.51578,-1.3441 -0.64646,-1.09034 -2.90821,0.63477 -1.96198,1.49648 -2.04703,1.50697 -3.36328,0.44922 -0.74252,-0.59669 -1.95424,-1.70604 -2.69336,-2.46485 -0.90163,-0.92565 -1.48075,-1.15579 -1.76172,-0.70117 -0.23032,0.37267 0.082,1.03866 0.69532,1.48047 2.81784,2.02999 3.5131,2.73368 2.61523,2.64648 -2.19539,-0.2133 -2.56121,0.1729 -0.90039,0.95313 l 1.80078,0.8457 -2.49414,-0.23242 c -2.8523,-0.26596 -4.24417,-1.00717 -5.80664,-3.09766 -0.86376,-1.15566 -0.94772,-1.65491 -0.39063,-2.32617 0.5502,-0.66295 0.52841,-1.04166 -0.0996,-1.6875 -0.44528,-0.45788 -1.69294,-1.81626 -2.77344,-3.01758 -1.0805,-1.20131 -2.36261,-2.18359 -2.84961,-2.18359 -1.25869,0 -1.13573,0.31659 1.11719,2.84766 1.64293,1.84576 2.13533,3.06325 2.73046,6.75195 0.67466,4.18166 1.86524,7.09914 1.86524,4.57031 0,-1.10296 1.26296,-1.08029 1.63281,0.0293 0.32714,0.98143 -5.82637,2.60163 -8.53125,2.24609 -15.12335,-1.98789 -21.90039,-2.12584 -21.90039,-0.44531 0,0.45333 -0.65,0.80078 -1.5,0.80078 -0.825,0 -1.5,-0.26961 -1.5,-0.59961 0,-0.33 -0.60711,-0.58179 -1.34961,-0.55859 -1.28814,0.0402 -1.29541,0.0666 -0.15039,0.55859 0.96906,0.41642 0.73695,0.54361 -1.20117,0.66797 -1.32,0.0847 -3.20922,0.21576 -4.19922,0.28906 -0.99,0.0733 -3.49655,0.19745 -5.57031,0.27735 -2.07375,0.0799 -3.92359,0.39078 -4.10938,0.6914 -1.0205,1.6512 -11.27847,2.66796 -24.82031,2.45899 -5.362,-0.0827 -6.38972,-0.25588 -6.90039,-1.16797 -0.33,-0.58941 -2.0175,-2.44253 -3.749997,-4.11719 -1.7325,-1.67466 -3.15039,-3.5408 -3.15039,-4.14648 0,-0.96249 0.13306,-0.99707 1.05078,-0.27735 0.91884,0.72062 0.96023,0.70904 0.33594,-0.0937 -0.66046,-0.84933 -1.03186,-5.67757 -0.67969,-8.83203 0.16449,-1.47343 1.09375,-1.88675 1.09375,-0.48633 0,1.15306 1.15786,1.81677 1.89062,1.08399 0.381727,-0.38172 0.215387,-0.95649 -0.47851,-1.65039 -0.58617,-0.58617 -1.14594,-1.5021 -1.24414,-2.03321 -0.33952,-1.83587 -0.69998,-5.17062 -0.73438,-6.81445 -0.02133,-1.0186 -0.36418,-1.65044 -0.89647,-1.65044 -1.01377,0 -0.73992,-3.14572 0.58203,-6.68164 0.44869,-1.20013 0.70102,-2.29898 0.55859,-2.44141 -0.51866,-0.51866 3.702427,-3.99408 6.777347,-5.58007 1.73531,-0.89507 3.30504,-1.86954 3.48828,-2.16602 0.18323,-0.29648 0.72035,-0.15271 1.19336,0.32031 0.88754,0.88754 0.58119,2.68572 -0.59375,3.49024 -0.35407,0.24245 0.23046,0.44422 1.29883,0.44921 1.59368,0.008 2.20225,0.42138 3.38867,2.30079 0.79534,1.2599 2.11444,2.72755 2.92969,3.26171 1.36654,0.89535 1.59255,0.89503 2.91015,-0.006 0.78605,-0.53744 1.56547,-1.13166 1.73047,-1.32032 0.165,-0.18867 1.78461,-1.55469 3.59961,-3.03515 1.815,-1.48047 3.39,-2.89508 3.5,-3.14258 0.11,-0.2475 0.46846,-0.44922 0.79688,-0.44922 1.06812,0 5.41212,-4.661209 4.73437,-5.080079 -0.42716,-0.264 -0.33915,-0.69796 0.26367,-1.30078 0.84338,-0.84338 1.22467,-2.01953 0.6543,-2.01953 -0.13809,0 -0.86635,1.0125 -1.61719,2.25 -1.64788,2.715989 -5.09069,6.277669 -7.09375,7.337889 -0.80421,0.42567 -1.75077,1.00604 -2.10156,1.28906 -0.35079,0.28302 -1.81042,1.4618 -3.24414,2.61914 -1.43372,1.15734 -2.78372,2.09644 -3,2.08594 -1.38895,-0.0674 -4.04105,-3.7318 -3.42383,-4.73047 0.17836,-0.2886 -0.0838,-0.68188 -0.58203,-0.87305 -0.73852,-0.28338 -0.86602,-1.36087 -0.69531,-5.832029 0.16898,-4.42606 -0.005,-5.90109 -0.89258,-7.64257 -0.60508,-1.18681 -1.09961,-2.21506 -1.09961,-2.28516 0,-0.0702 1.48756,-0.88068 3.30469,-1.80078 3.94867,-1.99939 7.81814,-5.2093 7.29687,-6.05274 -0.20578,-0.33295 1.0745,-2.12437 2.84375,-3.98046 3.23858,-3.3976 3.79067,-3.51235 4.72656,-0.98438 0.22377,0.60444 0.34906,0.46881 0.38086,-0.41406 0.026,-0.72303 -0.22273,-1.4816 -0.55273,-1.68555 -0.33,-0.20396 -0.59961,-0.64443 -0.59961,-0.97851 0,-0.33411 0.4601,-0.14733 1.02344,0.41601 0.65649,0.6565 0.99094,1.85763 0.93164,3.34375 -0.0508,1.27523 0.16404,2.31836 0.47656,2.31836 0.31251,0 0.56836,-0.42107 0.56836,-0.93555 0,-0.51447 0.26124,-0.77357 0.58008,-0.57617 0.31918,0.19727 0.42091,1.22546 0.22656,2.28516 -0.32726,1.78441 -0.28864,1.84254 0.52539,0.78906 0.85665,-1.10865 0.92743,-1.10114 2.77344,0.26367 2.30014,1.70058 2.33085,1.98256 0.31641,2.90039 -0.86764,0.39533 -1.4026,0.89232 -1.18946,1.10547 0.21315,0.21314 0.70716,0.0683 1.09766,-0.32226 0.3905,-0.39049 0.92545,-0.70899 1.18945,-0.70899 0.91796,0 0.47274,4.17628 -0.66015,6.19336 -1.33718,2.38072 -0.84411,3.73621 1.13085,3.10938 0.73731,-0.23401 2.86322,-0.40872 4.72461,-0.38672 2.35544,0.0278 3.11076,-0.13291 2.48438,-0.5293 -0.495,-0.31324 -2.14639,-0.57313 -3.66992,-0.57812 l -2.76953,-0.01 0.11718,-3.89649 c 0.0649,-2.1439 0.27711,-4.05639 0.47071,-4.25 0.1936,-0.19359 0.85844,0.15336 1.47656,0.77149 1.08036,1.08036 1.08113,1.1666 0.0488,2.25391 -1.19356,1.25717 -1.38536,2.12109 -0.47266,2.12109 0.33,0 0.59961,-0.38662 0.59961,-0.85938 0,-0.47276 0.55083,-1.03421 1.22461,-1.24804 0.87617,-0.27807 1.12076,-0.71745 0.85937,-1.54102 -0.38502,-1.21316 -0.0442,-1.31198 4.35938,-1.26758 1.06947,0.0108 2.0996,-0.22786 2.28711,-0.53125 0.1875,-0.30339 -0.28294,-0.55554 -1.04492,-0.56054 -1.10184,-0.007 -1.20203,-0.12617 -0.49024,-0.57618 0.56291,-0.35606 1.1071,-0.35188 1.46875,0.01 0.94396,0.94396 5.24087,0.66497 6.4375,-0.41797 0.69216,-0.62639 1.09766,-0.72976 1.09766,-0.2793 0,0.54444 0.3071,0.55093 1.28906,0.0254 1.04691,-0.56029 1.38966,-0.50769 1.83008,0.27929 0.29801,0.53251 1.0396,0.9668 1.64844,0.9668 1.70984,0 9.28498,2.45944 9.72265,3.15625 0.21419,0.34105 0.8213,0.45272 1.34961,0.25 0.5283,-0.20273 0.96094,-0.13858 0.96094,0.14258 0,0.28115 0.53922,0.65357 1.19922,0.82617 0.66,0.17259 1.20117,0.0994 1.20117,-0.16211 0,-0.52774 -3.70503,-2.41211 -4.74219,-2.41211 -0.36263,0 -0.6582,-0.23985 -0.6582,-0.5332 0,-0.29336 -1.82328,-0.99915 -4.05078,-1.56836 -2.2275,-0.5692 -4.8396,-1.38589 -5.80469,-1.81445 l -1.75391,-0.7793 2.95508,-0.39063 c 5.06963,-0.67018 4.95096,-0.85287 -0.3457,-0.53515 -2.805,0.16825 -6.24789,0.34362 -7.65039,0.39062 -1.4025,0.047 -2.55078,0.27296 -2.55078,0.50196 0,0.22893 -0.54921,0.27181 -1.22266,0.0957 -1.21803,-0.31852 -1.21826,-0.32503 0.0606,-1.2207 1.01586,-0.71154 1.11555,-1.00791 0.47461,-1.41407 -0.52598,-0.33331 0.13779,-0.53918 1.88867,-0.58398 1.485,-0.0379 3.37422,-0.30773 4.19922,-0.59961 1.14696,-0.40576 0.86531,-0.46663 -1.19922,-0.25977 l -2.70117,0.27149 3.30078,-1.58594 c 3.81493,-1.83343 3.89114,-1.88229 3.52148,-2.25195 -0.15291,-0.1529 -1.60765,0.12175 -3.23437,0.61133 -1.62672,0.48957 -3.27575,0.76815 -3.66406,0.61914 -0.3883,-0.14901 -1.20488,0.10651 -1.81446,0.56836 -0.60958,0.46182 -1.51281,0.8446 -2.00781,0.8496 -0.8,0.009 -0.8,-0.0542 0,-0.5625 0.62548,-0.39741 -0.0452,-0.53055 -2.19922,-0.43945 -2.41033,0.10187 -3.50549,-0.16889 -4.92578,-1.21875 -2.13038,-1.57475 -3.64287,-1.85644 -2.48633,-0.46289 0.87362,1.05265 4.05776,2.71289 5.20313,2.71289 0.4443,0 0.80664,0.21073 0.80664,0.46875 0,0.95006 -3.13054,0.68881 -5.35742,-0.44726 -1.26159,-0.64361 -2.50491,-0.97947 -2.76368,-0.7461 -0.25878,0.23335 -0.27644,0.0863 -0.0391,-0.32617 0.23739,-0.4125 0.13599,-0.75 -0.22461,-0.75 -0.57312,0 -4.21484,-3.31612 -4.21484,-3.83789 0,-0.1079 0.675,-0.0659 1.5,0.0918 0.825,0.15771 1.5,0.49573 1.5,0.75195 0,0.25622 0.39096,0.61531 0.86914,0.79883 0.5655,0.21701 0.75862,0.0463 0.55273,-0.49024 -0.26825,-0.69916 0.0979,-0.70017 2.39844,-0.008 1.49309,0.44935 3.26945,1.1138 3.94727,1.47656 0.67782,0.36276 1.22961,0.44661 1.22461,0.1875 -0.0164,-0.84334 -0.86662,-1.748 -2.0918,-2.22851 -1.2,-0.47064 -1.2,-0.47143 0,-0.96485 0.85319,-0.35083 0.93009,-0.50515 0.26367,-0.53515 -2.78172,-0.12516 -7.01636,-3.30016 -6.6582,-4.99219 0.0524,-0.2475 -0.30969,-0.44922 -0.80469,-0.44922 -0.495,0 -0.90039,-0.40539 -0.90039,-0.90039 0,-0.495 -0.22688,-0.90039 -0.50391,-0.90039 -0.27703,0 -0.85305,-0.74289 -1.27929,-1.65039 -0.47869,-1.0192 -0.88189,-1.34995 -1.05664,-0.86523 -0.1556,0.43156 0.11758,1.24238 0.60742,1.80078 0.48983,0.55841 1.06899,1.60154 1.28711,2.31836 0.21812,0.71683 1.45437,2.25898 2.74804,3.42773 2.60173,2.35051 2.48413,2.8595 -0.47656,2.05664 -1.25835,-0.34122 -2.1772,-1.07024 -2.53515,-2.01172 -0.70299,-1.849 -1.38771,-1.94178 -0.9375,-0.12695 0.1842,0.7425 0.18037,1.01221 -0.01,0.59766 -0.19014,-0.41452 -0.63548,-0.57547 -0.98828,-0.35743 -0.39132,0.24185 -0.4653,0.1104 -0.18945,-0.33593 0.60757,-0.98308 -0.1554,-4.85352 -0.95704,-4.85352 -0.35015,0 -0.51048,0.3375 -0.35546,0.75 0.89396,2.37885 0.9391,3.4971 0.0664,1.65039 -2.58349,-5.46693 -5.76485,-11.559528 -6.51562,-12.480468 -0.45733,-0.560988 -1.79344,-2.193235 -2.96875,-3.626953 -1.1753,-1.433724 -2.13672,-2.746723 -2.13672,-2.917969 0,-0.171246 1.28406,-0.158119 2.85156,0.0293 l 2.84961,0.341797 -3,-0.916016 c -1.65,-0.503526 -4.28401,-1.543885 -5.85352,-2.310547 -1.5695,-0.766662 -2.99684,-1.162112 -3.17187,-0.878906 -0.47984,0.7764 1.95907,2.958984 3.30664,2.958984 0.76549,0 1.06811,0.295926 0.85937,0.839844 -0.17713,0.461622 -0.0341,1.016515 0.31836,1.234375 0.3602,0.222612 0.6609,-0.07748 0.6875,-0.6875 0.0367,-0.841968 0.12649,-0.886743 0.39844,-0.193359 0.19283,0.491628 1.60208,2.652409 3.13281,4.800781 1.53073,2.148378 3.10974,4.581247 3.50782,5.406247 0.39807,0.825 1.2418,2.35125 1.875,3.39258 1.31925,2.16959 2.55643,6.20703 1.90234,6.20703 -0.63098,0 -3.3907,-3.05415 -4.22656,-4.67773 -0.50788,-0.9866 -1.04064,-1.27396 -1.87305,-1.00977 -0.65525,0.20797 -1.16406,0.0892 -1.16406,-0.27149 0,-0.35222 0.26661,-0.64062 0.5918,-0.64062 0.73693,0 -1.64954,-6.218065 -2.50391,-6.523435 -0.39166,-0.140021 -0.35355,-0.390136 0.10547,-0.673828 0.5725,-0.353454 0.57313,-0.743008 0.004,-1.80664 -0.5109,-0.954606 -0.85966,-1.141603 -1.17773,-0.626953 -0.30495,0.493422 -0.57125,0.279297 -0.81641,-0.658203 -0.25596,-0.978805 -0.55061,-1.201345 -0.99804,-0.753907 -0.44745,0.447444 -0.20133,1.420627 0.83398,3.289063 0.80886,1.45974 1.63288,3.734683 1.83008,5.054683 l 0.35742,2.39844 -1.46289,-3 c -0.80482,-1.65 -1.48617,-2.528361 -1.51367,-1.953123 -0.0625,1.308103 1.87298,5.853513 2.49219,5.853513 0.25216,0 0.48467,2.49828 0.51757,5.55078 0.0399,3.70231 0.22057,5.04945 0.54102,4.04883 0.45876,-1.4325 0.48392,-1.41243 0.54102,0.41601 0.0329,1.05302 -0.17623,2.05917 -0.4629,2.23633 -0.28664,0.17716 -0.69061,1.38591 -0.89843,2.68555 -0.20782,1.29964 -0.71588,2.48336 -1.12891,2.63086 -0.41302,0.14749 -0.55017,0.48293 -0.30469,0.74609 0.80009,0.85771 2.55218,-1.38054 3.39063,-4.33008 0.45104,-1.58667 1.16524,-3.69359 1.58594,-4.68359 0.42071,-0.99 0.94006,-2.58188 1.15429,-3.53711 0.53246,-2.37418 1.17929,-1.45807 2.62305,3.71289 l 1.22266,4.37695 -4.71485,4.73829 c -2.64767,2.66195 -4.40655,4.86617 -4.01172,5.02734 0.38664,0.15783 0.0245,0.30798 -0.80468,0.33398 -0.86491,0.0272 -1.98362,0.68108 -2.625,1.53516 -0.61489,0.81879 -1.33192,1.35714 -1.59375,1.19531 -0.26184,-0.16182 -0.90085,0.13131 -1.41993,0.65039 -0.51907,0.51908 -1.19175,0.78966 -1.49609,0.60157 -0.30435,-0.1881 -0.64518,-0.11252 -0.75586,0.16796 -0.11069,0.2805 -2.1683,1.10164 -4.57226,1.82618 -2.70474,0.81521 -4.21959,1.56259 -3.97461,1.95898 0.27189,0.43992 -0.23818,0.49001 -1.628907,0.16016 -1.11379,-0.26415 -2.72524,-0.49497 -3.58203,-0.51367 -0.85677,-0.0186 -1.93716,-0.32415 -2.40039,-0.67774 -0.46321,-0.3536 -3.00258,-1.52043 -5.64258,-2.59375 -5.89377,-2.39621 -10.92329,-5.6191 -11.81055,-7.5664 -0.36591,-0.80309 -0.874,-1.32941 -1.1289,-1.17188 -0.25489,0.15753 -0.64173,-0.52475 -0.85938,-1.51562 -0.21764,-0.99094 -0.78279,-2.01847 -1.25586,-2.28321 -0.53647,-0.30023 -1.16098,-2.50276 -1.66015,-5.85351 -0.50745,-3.40626 -1.053,-5.31776 -1.49219,-5.22266 -0.38096,0.0825 -0.69336,-0.255 -0.69336,-0.75 0,-0.495 -0.23103,-0.90039 -0.51367,-0.90039 -0.28264,0 -0.48442,-0.80958 -0.44922,-1.79883 0.0351,-0.98925 0.26617,-1.79823 0.51367,-1.79883 0.2475,-7.5e-4 0.44922,0.24826 0.44922,0.55469 0,0.30643 0.42349,0.98208 0.94141,1.5 0.69587,0.69588 1.2337,0.78431 2.06054,0.3418 0.61539,-0.32935 1.2044,-0.59941 1.3086,-0.59961 0.10419,-2.1e-4 0.095,1.37629 -0.0215,3.05859 -0.11652,1.68229 -0.0337,4.49481 0.18555,6.25 0.37943,3.03685 0.51655,3.23876 2.80469,4.1543 1.98966,0.7961 2.81,0.84061 4.76171,0.25586 3.36473,-1.0081 2.91758,-1.8338 -0.73242,-1.34961 -2.56214,0.33988 -3.22617,0.23065 -3.86328,-0.64063 -0.56757,-0.77621 -0.60635,-1.46667 -0.14844,-2.63867 0.34123,-0.87335 0.73727,-2.75793 0.87891,-4.1875 0.14164,-1.42957 0.30288,-2.77957 0.35938,-3 0.21715,-0.84764 -0.88431,-6.45963 -1.49219,-7.60156 -0.76966,-1.445858 -2.26191,-2.653585 -3.3086,-2.679685 -0.58831,-0.01466 -0.55743,0.382159 0.13477,1.720695 0.79193,1.53146 0.79402,1.78334 0.0156,2.08204 -0.48685,0.1868 -1.32837,0.16919 -1.8711,-0.0391 -0.59532,-0.22845 -1.29321,0.0417 -1.75976,0.67969 -1.02494,1.40168 -2.05274,0.68096 -2.05274,-1.4375 0,-1.19443 0.62624,-2.251282 2.09961,-3.544918 2.06451,-1.81266 2.68186,-3.080078 1.5,-3.080078 -1.02888,0 -0.66797,-0.90983 1.18945,-2.990234 0.98477,-1.10301 1.94815,-2.500996 2.14063,-3.107422 0.19247,-0.606426 0.60242,-1.103516 0.91015,-1.103516 0.30777,0 0.5586,-0.285289 0.5586,-0.634765 0,-0.349478 -0.26961,-0.469577 -0.59961,-0.265625 -0.33,0.203952 -0.59961,0.06006 -0.59961,-0.320313 0,-0.38037 0.53922,-0.833263 1.19922,-1.005859 0.66,-0.172596 1.20117,-0.57973 1.20117,-0.90625 0,-0.32652 0.675,-1.12449 1.5,-1.773438 0.825,-0.648948 1.5,-1.546666 1.5,-1.99414 0,-0.44748 0.34403,-1.169401 0.76563,-1.605469 0.87947,-0.909653 4.0332,-7.805325 4.0332,-8.818359 0,-0.371232 0.26239,-0.675782 0.58203,-0.675782 0.31964,0 0.41231,-0.471328 0.20508,-1.048828 -0.20718,-0.577498 -0.17984,-0.87351 0.0625,-0.65625 0.24234,0.21726 0.509,0.857569 0.59179,1.421875 0.18927,1.289526 4.40885,5.004623 6.20899,5.466797 0.7425,0.190626 1.34961,0.588585 1.34961,0.882813 0,0.294222 0.40539,0.533203 0.90039,0.533203 1.09059,0 1.19186,-0.968123 0.15039,-1.439453 -0.4125,-0.186678 -0.21078,-0.266668 0.44922,-0.179688 0.76052,0.10023 1.18907,0.596529 1.16797,1.355469 -0.0213,0.767772 0.67766,1.56409 1.94922,2.21875 l 1.98437,1.019531 -0.0234,-1.636719 c -0.017,-1.221294 -0.63537,-2.059804 -2.43164,-3.302734 -1.32448,-0.916464 -2.66357,-1.507899 -2.97656,-1.314453 -0.313,0.193446 -0.56836,0.08 -0.56836,-0.25 0,-0.33 0.25668,-0.758077 0.57227,-0.953125 0.88622,-0.547716 0.0393,-2.083369 -0.94141,-1.707031 -0.53471,0.205212 -0.73049,0.765573 -0.50976,1.460937 0.44931,1.415642 -0.18473,1.449983 -1.45118,0.07813 -0.53371,-0.578124 -1.50992,-1.443417 -2.16992,-1.921875 -0.95585,-0.692928 -1.04857,-0.697286 -0.45117,-0.02734 0.4125,0.462582 0.74147,1.124203 0.73047,1.470703 -0.011,0.346503 -0.5756,-0.03828 -1.25391,-0.853515 -0.67835,-0.815238 -0.95403,-1.573914 -0.61328,-1.6875 0.34069,-0.113586 0.47206,-0.592673 0.29102,-1.064453 -0.18104,-0.471816 -0.56774,-0.709543 -0.85938,-0.529297 -0.29164,0.180246 -0.35969,-0.118615 -0.15039,-0.664063 0.20931,-0.545442 0.0543,-1.194176 -0.3457,-1.441406 -0.40003,-0.24723 -0.78567,-0.829052 -0.85547,-1.291016 -0.0698,-0.461963 -0.338,-1.177343 -0.5957,-1.589843 -0.34119,-0.546156 0.15215,-0.774374 1.8164,-0.839844 1.98977,-0.07827 2.05854,-0.122479 0.52344,-0.349609 l -1.76367,-0.261719 2.36328,-1.158203 c 0.97481,-0.478136 1.51366,-0.795766 1.44336,-0.837891 z m 40.542967,2.699219 c 0.31754,4.02e-4 1.36342,0.675663 2.32422,1.501953 0.96081,0.826296 1.63581,1.611075 1.5,1.742187 -0.1358,0.131113 -1.18168,-0.546096 -2.32422,-1.503906 -1.14253,-0.95781 -1.81753,-1.740636 -1.5,-1.740234 z m -60.990237,0.332031 c -0.46392,0.05942 -0.9094,0.454862 -1.04297,1.148438 -0.18766,0.974418 -0.075,1.053884 0.64649,0.455078 0.48093,-0.399132 1.08924,-0.525888 1.35156,-0.28125 0.26229,0.244632 0.34854,0.03992 0.19336,-0.455078 -0.20388,-0.650355 -0.68452,-0.926608 -1.14844,-0.867188 z m 21.60157,1.466797 c -0.435,0 -0.5369,0.77958 -0.29493,2.25 0.20364,1.2375 0.45715,2.789219 0.56446,3.449219 0.10731,0.66 0.51133,1.173625 0.89648,1.140625 1.94683,-0.166806 2.03041,-0.303589 0.94336,-1.552735 -1.14142,-1.311624 -1.14068,-1.311414 0.80664,0.04102 1.0725,0.744864 1.94922,1.563277 1.94922,1.820313 0,0.651852 2.2021,3.12535 2.80469,3.15039 0.27254,0.01132 0.4282,0.263547 0.3457,0.560547 -0.0825,0.297 0.18711,0.543875 0.59961,0.546875 0.4125,0.0032 1.966167,0.98164 3.451167,2.173828 1.74683,1.402398 2.22302,2.021673 1.34961,1.753906 -0.7425,-0.227638 -1.34961,-0.190587 -1.34961,0.08398 0,0.650405 7.15122,3.953952 11.49414,5.308593 1.88628,0.588366 3.28441,1.351535 3.14453,1.716797 -0.13849,0.36165 0.42555,0.694608 1.25391,0.742188 2.25221,0.129396 1.82331,-0.663682 -1.04297,-1.927735 -1.4025,-0.618509 -2.68461,-1.30684 -2.84961,-1.529296 -0.165,-0.222456 -1.47031,-0.719222 -2.90039,-1.103516 -1.8579,-0.499266 -2.50626,-0.945586 -2.26953,-1.5625 0.18222,-0.474852 0.002,-0.865541 -0.40039,-0.869141 -1.8133,-0.01564 -17.830077,-14.067416 -17.830077,-15.642578 0,-0.302747 -0.29992,-0.55078 -0.66601,-0.55078 z m -11.1504,0.970703 c -0.50059,-0.04012 -1.29298,0.314042 -1.88671,0.867188 -0.67855,0.632172 -1.61049,1.003376 -2.07227,0.826171 -0.57205,-0.219515 -1.20401,0.595232 -1.98242,2.554688 -0.62836,1.581744 -1.25447,3.146968 -1.39063,3.478516 -0.13617,0.331542 0.15972,0.267054 0.65625,-0.142578 0.49653,-0.409616 1.04177,-0.604708 1.21289,-0.433594 0.17112,0.17112 1.06663,-0.708596 1.99024,-1.955078 0.92362,-1.246482 2.31817,-2.842397 3.09765,-3.546875 1.09152,-0.98649 1.2227,-1.355131 0.57032,-1.605469 -0.0582,-0.02235 -0.1238,-0.03724 -0.19532,-0.04297 z M 67.226493,18 c -0.14552,0 -0.43082,0.271562 -0.63477,0.601562 -0.20395,0.33 -0.0858,0.59961 0.26367,0.59961 0.34947,0 0.63672,-0.26961 0.63672,-0.59961 0,-0.33 -0.12009,-0.601562 -0.26562,-0.601562 z m 58.994137,0 c -0.33,0 -0.43247,0.271562 -0.22852,0.601562 0.20395,0.33 0.6407,0.59961 0.9707,0.59961 0.33,0 0.43247,-0.26961 0.22852,-0.59961 C 126.98738,18.271562 126.55063,18 126.22063,18 Z m -4.31446,0.0098 c -0.42937,0.0055 -0.35522,0.242321 0.18555,0.591797 1.15267,0.744918 1.36077,0.744918 0.90039,0 -0.20395,-0.33 -0.69292,-0.596597 -1.08594,-0.591797 z m 15.02344,0.695313 c 0.13771,0.03735 0.33734,0.36271 0.6875,0.998047 0.87365,1.585164 0.7131,2.063312 -0.45117,1.34375 -0.43541,-0.2691 -0.68604,-0.996728 -0.55664,-1.617188 0.10667,-0.511437 0.18261,-0.761956 0.32031,-0.724609 z m -35.0293,1.210937 c -0.13321,0.001 -0.20898,0.132564 -0.20898,0.414063 0,0.33 0.27437,0.769526 0.60937,0.976562 0.335,0.207042 1.01348,1.34424 1.50782,2.527344 0.49433,1.183104 1.04873,2.00009 1.23242,1.816406 0.18369,-0.18369 -0.22013,-1.420406 -0.89844,-2.75 -0.92649,-1.816069 -1.84253,-2.98752 -2.24219,-2.984375 z m -44.105467,0.167969 c 0.0605,-0.01401 0.0942,0.01294 0.0938,0.08594 -0.002,0.292002 -0.54162,1.340078 -1.19727,2.330078 -0.65565,0.989838 -1.19331,1.439043 -1.19531,0.996093 -0.002,-0.442948 0.53531,-1.492979 1.19531,-2.332031 0.495,-0.629289 0.92212,-1.038052 1.10351,-1.080078 z m 6.02735,1.587891 c -0.31302,0.0078 -1.60937,1.767923 -2.31836,3.228515 -0.48056,0.99 -0.97316,2.0025 -1.09375,2.25 -0.12064,0.2475 -0.0842,0.451172 0.0801,0.451172 0.29747,0 3.40234,-5.309499 3.40234,-5.818359 0,-0.07638 -0.0256,-0.112446 -0.0703,-0.111328 z m 47.746087,1.392578 c 0.32489,0.07509 1.03719,0.381583 2.12305,0.935547 1.32,0.673416 2.40039,1.35538 2.40039,1.513672 0,0.567858 -0.932,0.245646 -2.84961,-0.982422 -1.34421,-0.860856 -1.95574,-1.362661 -1.86914,-1.464844 0.0216,-0.02555 0.087,-0.02698 0.19531,-0.002 z m -46.005857,0.433594 c 0.0852,0.04395 0.11133,0.305892 0.11133,0.802734 0,0.66 -0.26213,1.604609 -0.58203,2.099609 -0.48162,0.74526 -0.58203,0.694856 -0.58203,-0.298828 0,-0.66 0.26213,-1.606562 0.58203,-2.101562 0.24081,-0.37263 0.3855,-0.5459 0.4707,-0.501953 z m 80.748047,2.509765 c -0.0909,-0.01377 -0.15387,0.205722 -0.17187,0.642578 -0.026,0.632496 0.11702,0.986484 0.3164,0.78711 0.19931,-0.19938 0.2202,-0.715316 0.0469,-1.148438 -0.0718,-0.179489 -0.13684,-0.272987 -0.19141,-0.28125 z m -74.939447,0.07031 c -0.10853,-0.04043 -0.1836,0.303125 -0.1836,0.921875 0,0.825 0.13433,1.1625 0.30078,0.75 0.16644,-0.4125 0.16644,-1.0875 0,-1.5 -0.0416,-0.103125 -0.081,-0.158399 -0.11718,-0.171875 z m 59.685537,0.921875 c -0.34949,0 -0.46957,0.271562 -0.26562,0.601562 0.20395,0.33 0.4912,0.59961 0.63672,0.59961 0.14553,0 0.26367,-0.26961 0.26367,-0.59961 0,-0.33 -0.2853,-0.601562 -0.63477,-0.601562 z m -10.87304,1.800749 c 0.35093,0 0.81568,0.288671 1.0332,0.640625 0.64576,1.044864 -0.0892,1.265 -0.91211,0.273437 -0.47325,-0.570233 -0.51895,-0.914062 -0.12109,-0.914062 z m -60.873047,0.207031 c -0.0909,-0.01377 -0.15387,0.205722 -0.17187,0.642578 -0.0261,0.632496 0.11702,0.986484 0.3164,0.78711 0.19931,-0.199374 0.2202,-0.715316 0.0469,-1.148438 -0.0718,-0.179489 -0.13684,-0.272987 -0.19141,-0.28125 z m 75.910157,0.392578 c -0.33,0 -0.43247,0.26961 -0.22852,0.59961 0.20395,0.33 0.6407,0.601562 0.9707,0.601562 0.33,0 0.43247,-0.271562 0.22852,-0.601562 -0.20395,-0.33 -0.6407,-0.59961 -0.9707,-0.59961 z m -64.345707,0.04492 c -0.25069,0.07815 -0.73475,0.785763 -1.53906,2.205078 l -1.27539,2.25 1.51563,-1.683593 c 0.83369,-0.925902 1.51562,-1.938402 1.51562,-2.25 0,-0.389077 -0.0664,-0.568374 -0.2168,-0.521485 z m 30.181637,1.15625 c -0.34949,0 -0.46957,0.26961 -0.26562,0.59961 0.20395,0.33 0.4912,0.599609 0.63672,0.599609 0.14553,0 0.26367,-0.269609 0.26367,-0.599609 0,-0.33 -0.2853,-0.59961 -0.63477,-0.59961 z m 12,0.59961 c -0.34949,0 -0.46957,0.269609 -0.26562,0.599609 0.20395,0.33 0.4912,0.599609 0.63672,0.599609 0.14553,0 0.26367,-0.269609 0.26367,-0.599609 0,-0.33 -0.2853,-0.599609 -0.63477,-0.599609 z M 101.09172,33 c -0.33,0 -0.59961,0.421071 -0.59961,0.935547 0,0.514488 0.26961,0.768405 0.59961,0.564453 0.33,-0.203952 0.59961,-0.625023 0.59961,-0.935547 C 101.69133,33.253929 101.42172,33 101.09172,33 Z m 40.56641,2.007812 c -0.21516,-0.03617 -0.36719,0.09531 -0.36719,0.357422 0,0.349476 0.27156,0.634766 0.60156,0.634766 0.33,0 0.59961,-0.118148 0.59961,-0.263672 0,-0.145524 -0.26961,-0.430814 -0.59961,-0.634766 -0.0825,-0.05099 -0.16265,-0.08169 -0.23437,-0.09375 z m 4.07031,1.59375 c -0.12969,0 -0.23633,0.403438 -0.23633,0.898438 0,0.495 0.26044,0.90039 0.58008,0.90039 0.31961,0 0.42628,-0.40539 0.23633,-0.90039 -0.18996,-0.495 -0.45039,-0.898438 -0.58008,-0.898438 z m -89.417967,1.40625 c -0.0909,-0.01377 -0.15387,0.205722 -0.17187,0.642578 -0.0261,0.632496 0.11702,0.986484 0.3164,0.78711 0.19931,-0.19938 0.2202,-0.715316 0.0469,-1.148438 -0.0718,-0.179489 -0.13684,-0.272987 -0.19141,-0.28125 z m 10.81445,0.02344 c -0.0717,-0.0032 -0.14992,0.01932 -0.23242,0.07031 -0.33,0.203952 -0.60156,0.625023 -0.60156,0.935547 0,0.310524 0.27156,0.564453 0.60156,0.564453 0.33,0 0.59961,-0.421071 0.59961,-0.935547 0,-0.385866 -0.15203,-0.625239 -0.36719,-0.634765 z m 74.652347,0.07813 c -0.41872,0.05509 -0.0345,0.690136 1.36133,2.710937 0.57753,0.836142 1.23868,2.523642 1.46874,3.75 0.23007,1.226351 0.65791,2.230462 0.95118,2.230462 0.76205,0 0.68241,-0.526007 -0.70118,-4.623047 -0.83786,-2.48106 -1.60879,-3.753925 -2.40039,-3.960937 -0.31001,-0.08107 -0.54011,-0.125785 -0.67968,-0.107422 z m -13.87305,0.291015 c 0.35266,0 0.97591,0.405391 1.38672,0.900391 0.93432,1.125792 0.6418,1.118855 -0.86328,-0.01953 -0.64057,-0.484506 -0.87611,-0.88086 -0.52344,-0.88086 z m -13.46289,0.0098 c -1.28576,0.0072 -1.45132,0.136616 -0.75,0.589844 1.17392,0.758646 2.40039,0.758646 2.40039,0 0,-0.33 -0.74289,-0.594644 -1.65039,-0.589844 z m 12.00977,0.804687 c 0.0702,-0.06684 0.17985,0.13442 0.35546,0.580079 0.23719,0.60192 0.69071,1.110579 1.00782,1.130859 1.26119,0.08058 4.44507,1.92444 4.76562,2.759766 0.41877,1.091298 0.42032,1.089344 -1.78906,0.830078 -2.37191,-0.27834 -4.51003,-2.326818 -4.45703,-4.269532 0.0172,-0.629322 0.047,-0.96441 0.11719,-1.03125 z M 63.857343,39.5059 c 0.0606,-0.02297 0.11796,-0.02148 0.16993,0 0.31182,0.128904 0.45102,0.994698 0.17968,1.84961 -0.21737,0.68487 -0.66609,1.246093 -0.99609,1.246093 -0.52683,0 -0.18057,-2.246352 0.45508,-2.951172 0.0669,-0.07414 0.13078,-0.121562 0.1914,-0.144531 z m 43.833987,1.294881 c -0.0108,0.0538 0.16566,0.29379 0.52344,0.75 0.45291,0.5775 1.26369,1.027993 1.80078,1.001953 0.81683,-0.03962 0.82902,-0.102141 0.0762,-0.380859 -0.495,-0.183258 -1.30578,-0.633763 -1.80078,-1.001953 -0.39105,-0.290862 -0.58883,-0.422945 -0.59964,-0.369141 z m -34.488277,0.09766 c 0.12015,-0.02071 0.23242,-0.01693 0.33008,0.01563 0.34668,0.11556 -0.0616,0.858856 -0.90625,1.652344 -0.85368,0.801975 -1.53516,1.110801 -1.53516,0.695304 0,-0.885466 1.27025,-2.218326 2.11133,-2.363282 z m 61.439447,1.998047 c 0.10758,0.01177 0.22586,0.0404 0.34961,0.08789 0.495,0.189954 0.90039,0.450382 0.90039,0.580078 0,0.129687 -0.40539,0.236325 -0.90039,0.236325 -0.495,0 -0.90039,-0.262387 -0.90039,-0.582031 0,-0.239727 0.22805,-0.357572 0.55078,-0.322266 z m -70.574217,0.666016 c 0.20002,0.02337 0.38549,0.190682 0.5586,0.5 0.31256,0.558546 0.27631,1.362985 -0.0879,1.988281 -0.33637,0.5775 -0.62935,0.779219 -0.65235,0.449219 -0.0229,-0.33 -0.42252,0.279062 -0.88867,1.351562 -1.25224,2.881116 -2.2218,2.427016 -1.17187,-0.548828 0.91146,-2.583355 1.64212,-3.810355 2.24218,-3.740234 z m 5.27539,0.199219 c 0.0934,-0.01186 0.17715,-0.01003 0.24805,0.0078 0.18906,0.04758 0.29165,0.202145 0.2793,0.480469 -0.0333,0.749994 -2.22958,3.15039 -2.88282,3.15039 -0.33603,0 -1.03416,0.424786 -1.55273,0.94336 -1.77846,1.778454 -0.94423,-0.373931 0.95313,-2.458985 1.13577,-1.24814 2.30127,-2.040019 2.95507,-2.123046 z m 25.82617,0.193359 c -5.37058,0.08421 -12.64735,1.225563 -13.38671,2.421875 -0.25291,0.409224 0.22722,1.408356 1.13086,2.351562 l 1.57031,1.638672 2.30469,-2.083984 c 1.26813,-1.145682 2.64313,-2.10148 3.05468,-2.125 1.14201,-0.06527 5.17504,-0.495006 8.84766,-0.941406 l 3.300777,-0.400395 -2.400387,-0.556641 c -1.05387,-0.244195 -2.63166,-0.332757 -4.42188,-0.304687 z m 41.154297,0.476562 c 0.28679,0 0.77968,0.18868 1.36719,0.56836 0.77561,0.501244 0.76108,0.583897 -0.11328,0.591797 -0.55802,0.0051 -1.18277,-0.261797 -1.38672,-0.591797 -0.23466,-0.37968 -0.15397,-0.56836 0.13281,-0.56836 z m -42.308587,6.083985 c -2.15339,0.06056 -5.16089,0.534659 -5.88867,1.138672 -1.62907,1.352004 -1.56845,2.88748 0.17578,4.42187 1.87807,1.65214 2.34595,1.80197 2.88867,0.92383 0.20395,-0.33 0.99661,-0.59961 1.76172,-0.59961 1.95745,0 2.99743,-1.39392 2.17969,-2.921872 -0.85095,-1.590024 -0.80997,-1.876953 0.25976,-1.876953 0.495,0 0.89844,-0.308537 0.89844,-0.685547 0,-0.322845 -0.98336,-0.436727 -2.27539,-0.40039 z m 25.490227,1.09375 c -0.42937,0.0055 -0.35522,0.242321 0.18555,0.591797 1.15267,0.744918 1.36077,0.744918 0.90039,0 -0.20395,-0.33 -0.69292,-0.596597 -1.08594,-0.591797 z m -65.560537,1.705078 c 0.0528,-0.05979 0.0245,0.42086 -0.084,1.287104 -0.34833,2.78267 -1.08038,3.4514 -1.25586,1.14844 -0.0791,-1.03862 0.10927,-1.68362 0.43164,-1.48438 0.31346,0.19372 0.68564,-0.12268 0.82813,-0.70507 0.0356,-0.145599 0.0625,-0.226163 0.0801,-0.246094 z m 73.062497,0.765624 c -0.17184,-0.0503 -0.10405,0.45543 0.25781,1.39843 0.20577,0.53622 0.50177,0.84785 0.65625,0.69336 0.15448,-0.15448 -0.007,-0.7747 -0.35742,-1.37695 -0.26524,-0.45612 -0.45354,-0.68467 -0.55664,-0.71484 z m 17.88476,1.7207 c -0.33,0 -0.60156,0.26961 -0.60156,0.59961 0,0.33 0.27156,0.59961 0.60156,0.59961 0.33,0 0.59961,-0.26961 0.59961,-0.59961 0,-0.33 -0.26961,-0.59961 -0.59961,-0.59961 z m -16.25976,1.19922 c -0.51306,0 -0.16804,2.60656 0.50195,3.79101 0.15243,0.26941 0.41086,0.35672 0.57422,0.19336 0.48336,-0.48337 -0.46218,-3.98437 -1.07617,-3.98437 z m 6.08398,2.03711 c -0.0911,0.0939 0.43592,0.79392 1.625,2.05469 0.4125,0.43737 0.75,0.98791 0.75,1.2246 0,0.23674 1.49501,1.33788 3.32227,2.44532 3.77954,2.29064 10.36722,4.33085 13.47851,4.17578 3.55971,-0.17741 4.71355,0.13459 2.46094,0.66601 -1.12101,0.26445 -3.7936,0.23357 -5.93945,-0.0703 -4.1428,-0.5867 -5.73345,-0.33853 -2.44922,0.38281 1.07741,0.23664 2.33038,0.80305 2.78515,1.25782 0.95345,0.95345 3.87781,1.09078 5.40039,0.2539 0.57303,-0.31497 2.34846,-1.1196 3.94532,-1.78906 1.75255,-0.73475 2.79691,-1.51969 2.63671,-1.97851 -0.14597,-0.4181 0.30395,-1.11549 0.99805,-1.55079 1.15915,-0.72694 1.16276,-0.75633 0.0606,-0.36523 -4.28173,1.51929 -6.79079,1.86492 -9.89844,1.36133 -1.815,-0.29412 -4.65558,-0.602 -6.31055,-0.6836 -3.44125,-0.16973 -6.24578,-1.68008 -10.7832,-5.80273 -1.28209,-1.16489 -1.99096,-1.67591 -2.08203,-1.58203 z m 3.94141,0.57031 c -0.21516,-0.0362 -0.36719,0.0953 -0.36719,0.35742 0,0.34948 0.27156,0.63672 0.60156,0.63672 0.33,0 0.59961,-0.1201 0.59961,-0.26562 0,-0.14553 -0.26961,-0.43082 -0.59961,-0.63477 -0.0825,-0.051 -0.16265,-0.0817 -0.23437,-0.0937 z m -79.193357,0.62695 c -0.21867,0.007 -0.37305,0.24501 -0.37305,0.63086 0,1.05392 0.36067,1.20918 0.875,0.37696 0.18987,-0.3072 0.0697,-0.72827 -0.26562,-0.93555 -0.0838,-0.0518 -0.16344,-0.0747 -0.23633,-0.0723 z m 62.175777,0.41993 c 0.23808,-2.5e-4 0.45117,0.68196 0.45117,2.04687 0,1.155 -0.26981,2.09961 -0.59961,2.09961 -0.3298,0 -0.53152,-0.94527 -0.44922,-2.09961 0.0973,-1.36492 0.35958,-2.04663 0.59766,-2.04687 z m 25.45703,0.13867 c -0.0475,-0.0339 -0.11319,0.25866 -0.22852,0.85742 -0.29991,1.55709 -0.22373,1.53155 -2.23828,0.76562 -0.95718,-0.36386 -1.53906,-0.37107 -1.53906,-0.01757 0,0.48577 2.43016,1.33898 7.5,2.63281 3.51523,0.89709 14.51612,-0.61474 13.30273,-1.82813 -0.165,-0.165 -0.88273,0.013 -1.5957,0.39454 -1.47237,0.78797 -7.35757,0.94328 -11.92969,0.31445 -2.79482,-0.38439 -3.084,-0.57021 -3.1582,-2.01758 -0.0362,-0.70683 -0.0657,-1.06766 -0.11328,-1.10156 z m -6.63867,0.0137 c -0.21516,-0.0362 -0.36719,0.0973 -0.36719,0.35937 0,0.34948 0.26961,0.63477 0.59961,0.63477 0.33,0 0.59961,-0.11815 0.59961,-0.26367 0,-0.14553 -0.26961,-0.43277 -0.59961,-0.63672 -0.0825,-0.051 -0.1607,-0.0817 -0.23242,-0.0937 z m -75.363277,0.46094 c 0.31085,0.0441 0.67264,0.52222 1.08789,1.43359 0.37548,0.825 0.54523,1.5 0.37695,1.5 -0.16828,0 -0.46502,-0.41262 -0.6582,-0.91601 -0.26014,-0.67791 -0.5531,-0.74675 -1.13282,-0.26563 -0.61125,0.5073 -0.713,0.37992 -0.46093,-0.58398 0.21495,-0.822 0.47625,-1.21206 0.78711,-1.16797 z m 72.166007,3.34961 c -0.39202,0.0247 0.08,0.63334 1.48047,1.47851 2.03294,1.22691 1.95031,1.19833 1.94531,0.6543 -0.002,-0.2475 -0.81093,-0.90855 -1.79882,-1.4707 -0.84493,-0.48079 -1.39175,-0.67694 -1.62696,-0.66211 z m -71.957027,2.16992 c 0.16437,-0.0274 0.39847,1.99694 0.61328,5.85742 0.17556,3.15498 0.59434,6.45779 0.92969,7.33984 0.34759,0.91422 0.39941,2.17598 0.11914,2.9336 -0.65041,1.75824 -1.875,-6.23548 -1.875,-12.24219 0,-2.6049 0.085,-3.86737 0.21289,-3.88867 z m 61.005857,0.41406 c 0.31964,0 0.58203,0.40539 0.58203,0.90039 0,0.495 -0.10664,0.89844 -0.23633,0.89844 -0.12969,0 -0.39207,-0.40344 -0.58203,-0.89844 -0.18995,-0.495 -0.0833,-0.90039 0.23633,-0.90039 z m 15.70898,0.0332 c -0.13953,0.0132 0.11238,0.23745 0.77149,0.76563 1.39081,1.11454 2.10156,1.25014 2.10156,0.40039 0,-0.33 -0.24777,-0.59961 -0.55078,-0.59961 -0.30301,0 -1.0459,-0.17147 -1.65039,-0.38086 -0.3622,-0.12547 -0.58815,-0.19348 -0.67188,-0.18555 z m -14.38085,0.084 c 0.11938,-0.0574 0.33147,0.12053 0.70117,0.5039 0.46598,0.48322 1.13235,1.94272 1.48242,3.24414 0.35007,1.30147 0.55417,2.44974 0.45312,2.55079 -0.34166,0.34166 -0.98437,-0.61057 -0.98437,-1.45899 0,-0.46357 -0.40344,-1.24719 -0.89844,-1.74219 -0.495,-0.495 -0.90039,-1.48036 -0.90039,-2.1875 0,-0.56103 0.0271,-0.85278 0.14649,-0.91015 z m -0.63086,2.96094 c 0.1031,0.0302 0.2914,0.26067 0.55664,0.71679 0.35088,0.60225 0.5119,1.22052 0.35742,1.375 -0.15448,0.15449 -0.45048,-0.15714 -0.65625,-0.69336 -0.36186,-0.943 -0.42965,-1.44872 -0.25781,-1.39843 z m -26.38868,0.6289 c -0.0698,-0.011 -0.13712,-0.0106 -0.20117,0.002 -0.17079,0.0336 -0.31475,0.15519 -0.39258,0.38867 -0.884657,2.65399 -8.135907,7.84987 -11.009757,7.88867 -0.53709,0.007 -1.3138,0.41906 -1.72461,0.91406 -0.64427,0.7763 -0.391,0.89844 1.83789,0.89844 1.42122,0 3.7277,-0.55211 5.125,-1.22852 2.75744,-1.33486 7.437497,-6.00559 7.437497,-7.42187 0,-0.74165 -0.58334,-1.36478 -1.07227,-1.44141 z m 47.80078,0.56836 c -0.32625,-0.004 -0.6749,0.0333 -0.96679,0.10938 -0.58378,0.15213 -0.25172,0.28662 0.73828,0.29882 0.99002,0.0122 1.46872,-0.11298 1.0625,-0.27734 -0.20311,-0.0822 -0.50771,-0.12682 -0.83399,-0.13086 z m -15.02539,2.96094 c 0.57878,0.0496 1.936,1.31612 2.55079,2.46484 0.32352,0.60464 0.45427,1.09766 0.29101,1.09766 -0.51634,0 -3.31373,-3.22924 -3.03711,-3.50586 0.0465,-0.0464 0.11263,-0.0637 0.19531,-0.0566 z m -65.917957,0.26367 1.10546,2.40039 c 2.5421,5.51856 3.02695,12.21102 0.9961,13.76172 -0.45887,0.35039 -1.24864,1.4475 -1.75586,2.4375 -0.94907,1.85241 -1.22576,0.94057 -0.36328,-1.19922 0.26686,-0.66202 0.23349,-1.5158 -0.0762,-1.9043 -0.56149,-0.70442 0.39613,-5.5957 1.0957,-5.5957 0.18755,0 0.1809,0.41755 -0.0156,0.92969 -0.20561,0.53583 -0.10428,0.77617 0.23829,0.56445 0.32749,-0.20237 0.45515,-0.95936 0.2832,-1.68164 -0.17194,-0.72227 -0.40986,-2.12328 -0.52735,-3.11328 -0.11748,-0.99 -0.38485,-2.87922 -0.5957,-4.19922 l -0.38476,-2.40039 z m 79.638667,3.50391 c 1.0635,0.0381 1.15525,0.23853 0.72265,0.75976 -0.89001,1.07244 -5.55085,1.14954 -5.19726,0.0859 0.14647,-0.44058 1.41356,-0.78594 3.07031,-0.83594 0.58674,-0.0177 1.0498,-0.0225 1.4043,-0.01 z m -10.65821,1.59566 c 0.34947,0 0.63477,0.26961 0.63477,0.59961 0,0.33 -0.11814,0.59961 -0.26367,0.59961 -0.14552,0 -0.43277,-0.26961 -0.63672,-0.59961 -0.20395,-0.33 -0.0839,-0.59961 0.26562,-0.59961 z m 3.93555,0 c 0.825,0 1.5,0.26961 1.5,0.59961 0,0.33 -0.675,0.59961 -1.5,0.59961 -0.825,0 -1.5,-0.26961 -1.5,-0.59961 0,-0.33 0.675,-0.59961 1.5,-0.59961 z m -20.36523,1.19922 c 0.14553,0 0.26367,0.27156 0.26367,0.60156 0,0.33 -0.2853,0.59961 -0.63477,0.59961 -0.34949,0 -0.46762,-0.26961 -0.26367,-0.59961 0.20395,-0.33 0.48925,-0.60156 0.63477,-0.60156 z m -48.562497,0.20898 c 0.37189,0.12691 1.60408,1.18028 3.18359,2.75 2.06302,2.05025 3.97878,4.52318 4.25781,5.4961 0.27927,0.97292 0.28398,1.6304 0.01,1.46093 -0.27422,-0.16947 -0.63214,0.0269 -0.79492,0.4375 -0.27895,0.70364 -4.0293,3.19248 -4.0293,2.67383 0,-0.13317 0.53922,-0.86597 1.19922,-1.62695 1.31321,-1.51415 1.53338,-2.72368 0.59961,-3.30078 -0.33062,-0.20433 -0.84154,0.25999 -1.13477,1.03125 -0.65009,1.70988 -3.89563,5.26953 -4.80468,5.26953 -0.36259,0 -0.66297,-0.3375 -0.66797,-0.75 -0.006,-0.5 -0.20405,-0.44961 -0.5918,0.15039 -0.50851,0.78689 -0.58184,0.77919 -0.58984,-0.0586 -0.005,-0.527 0.5516,-1.60474 1.23828,-2.39649 l 1.24804,-1.43945 -0.44726,1.79687 c -0.39961,1.60342 -0.34406,1.71197 0.51562,1.00391 0.54156,-0.44601 0.80274,-1.2144 0.59571,-1.75391 -0.27433,-0.71488 -0.11277,-0.86303 0.63476,-0.57617 0.79225,0.30401 0.99554,0.0428 0.96094,-1.24414 -0.0643,-2.39522 -0.91119,-7.45991 -1.4668,-8.76758 -0.0332,-0.078 -0.0404,-0.1285 -0.0215,-0.15234 0.0165,-0.0209 0.0523,-0.022 0.10547,-0.004 z m 67.794917,4.19727 c -0.21516,-0.0362 -0.36719,0.0973 -0.36719,0.35937 0,0.34948 0.26961,0.63477 0.59961,0.63477 0.33,0 0.59961,-0.11815 0.59961,-0.26367 0,-0.14553 -0.26961,-0.43277 -0.59961,-0.63672 -0.0825,-0.051 -0.1607,-0.0817 -0.23242,-0.0937 z m 32.67969,3.47265 c -0.072,0.0381 0.10322,0.27203 0.47656,0.72461 0.45291,0.54903 1.06002,0.99805 1.34961,0.99805 0.9165,0 0.57196,-0.53339 -0.82422,-1.27734 -0.61207,-0.32614 -0.93,-0.48343 -1.00195,-0.44532 z m -88.869137,1.78516 c 0.25684,0.0453 0.66134,0.23728 1.26171,0.5586 1.79777,0.96213 1.42792,1.54328 -2.24609,3.5332 -4.81907,2.61012 -5.63687,2.39125 -2.91016,-0.7793 0.9991,-1.16172 1.86493,-1.62388 2.65235,-1.41797 0.89683,0.23454 1.11837,0.042 0.95117,-0.82617 -0.15656,-0.81292 -0.13706,-1.14377 0.29102,-1.06836 z m 8.0039,1.27149 c 0.10937,-0.009 0.22264,-0.01 0.33985,0 0.31253,0.0263 0.64623,0.1231 0.9707,0.30468 0.82758,0.46314 0.75358,0.63745 -0.51367,1.21485 -1.19174,0.54299 -1.54412,0.50174 -1.81836,-0.21289 -0.27751,-0.72319 0.25589,-1.24115 1.02148,-1.30664 z m -8.56445,3.33593 c 0.1238,0.0556 -0.79073,0.8255 -2.86719,2.55274 -0.4125,0.34313 -0.75,0.4237 -0.75,0.17968 0,-0.24401 -0.3247,-0.11865 -0.7207,0.27735 -0.396,0.396 -0.99031,0.71875 -1.32031,0.71875 -0.92933,0 0.20669,-0.85743 3.54101,-2.67578 1.29694,-0.70727 2.0209,-1.09597 2.11719,-1.05274 z m 53.382807,1.33008 c -0.33,0 -0.60156,0.26961 -0.60156,0.59961 0,0.33 0.27156,0.59961 0.60156,0.59961 0.33,0 0.59961,-0.26961 0.59961,-0.59961 0,-0.33 -0.26961,-0.59961 -0.59961,-0.59961 z m 54.9668,9.804689 c 0.0717,0.0121 0.14992,0.0428 0.23242,0.0937 0.33,0.20395 0.59961,0.49119 0.59961,0.63672 0,0.14552 -0.26961,0.26367 -0.59961,0.26367 -0.33,0 -0.59961,-0.28529 -0.59961,-0.63477 0,-0.26211 0.15203,-0.39555 0.36719,-0.35937 z m -131.400387,4.22461 c 0.0717,-0.003 0.14992,0.0193 0.23242,0.0703 0.33,0.20396 0.59961,0.62502 0.59961,0.93555 0,0.31052 -0.26961,0.56445 -0.59961,0.56445 -0.33,0 -0.59961,-0.42107 -0.59961,-0.93555 0,-0.38586 0.15203,-0.62523 0.36719,-0.63476 z m 35.49804,9.08594 c 0.0986,0.0378 0.13207,0.26464 0.13282,0.66015 0.001,0.70209 -0.39927,1.60978 -0.89063,2.01758 -0.49137,0.4078 -0.78311,0.92347 -0.64648,1.14453 0.13662,0.22106 0.0179,1.60798 -0.26563,3.08203 -0.28356,1.47405 -0.67737,3.66546 -0.87304,4.8711 -0.19566,1.20564 -0.68438,2.30717 -1.08789,2.44726 -0.91502,0.31766 -2.83399,-1.62121 -2.83399,-2.86328 0,-0.82667 1.64207,-4.1903 3.32227,-6.80664 0.34213,-0.53275 1.21813,-1.91336 1.94726,-3.06836 0.68458,-1.08442 1.03099,-1.54745 1.19531,-1.48437 z m -20.42773,11.78906 c 0.34361,-0.008 1.29369,0.44716 3.10156,1.36328 3.07476,1.5581 7.20888,5.19283 8.36524,7.35352 0.85269,1.5932 0.91787,4.97851 0.0957,4.97851 -0.33,0 -0.59961,0.40539 -0.59961,0.90039 0,1.07134 -0.99818,1.20661 -1.33984,0.18164 -0.16791,-0.50373 -0.9938,-0.32494 -2.76758,0.59961 -1.39099,0.72502 -2.9299,1.31836 -3.41797,1.31836 -0.48807,0 -1.34895,0.53922 -1.91406,1.19922 -1.64733,1.92395 -2.95514,1.51961 -3.38477,-1.04883 -0.207,-1.2375 -0.55238,-2.90121 -0.76953,-3.69531 -0.26054,-0.95276 -0.17842,-1.30804 0.24414,-1.04688 0.3522,0.21772 1.07813,0.22805 1.61133,0.0234 0.75063,-0.28805 0.81261,-0.55857 0.2793,-1.20117 -0.54961,-0.66224 -0.43023,-0.83008 0.58593,-0.83008 0.7004,0 1.27344,0.24198 1.27344,0.53906 0,0.29708 1.37418,0.8703 3.05469,1.27344 2.58297,0.61965 3.19247,0.59659 3.94141,-0.15234 0.78121,-0.78123 0.576,-0.92835 -1.74219,-1.2461 -4.00241,-0.54859 -8.31187,-2.56627 -7.88086,-3.68945 0.55225,-1.43916 -0.0644,-1.11421 -2.50977,1.32422 -1.41802,1.41397 -2.35159,1.96976 -2.51172,1.49609 -0.14016,-0.41456 -0.50092,-0.6006 -0.80273,-0.41406 -0.74764,0.46206 -0.6914,0.0795 0.25977,-1.75391 0.44499,-0.85773 1.02701,-1.36164 1.29492,-1.11914 0.2679,0.24251 0.28827,0.0933 0.043,-0.33203 -0.2453,-0.42531 0.022,-1.91109 0.5957,-3.30078 l 1.04297,-2.52539 2.03711,2.03906 c 1.47971,1.48212 2.21639,1.85978 2.69531,1.38086 0.47893,-0.47892 0.38498,-1.07727 -0.34375,-2.18945 -0.61908,-0.94483 -0.88072,-1.41748 -0.53711,-1.42578 z M 215.61125,132 c 1.02523,0 2.54488,2.33128 2.88477,4.42578 0.3785,2.33241 0.23616,2.57404 -0.86914,1.46875 -0.54096,-0.54096 -0.53466,-0.9181 0.0293,-1.61523 0.40466,-0.50015 0.46477,-0.75003 0.13477,-0.55664 -0.33,0.19338 -1.06621,-0.56551 -1.63672,-1.68555 C 215.58373,132.91707 215.33939,132 215.61126,132 Z m -154.171867,0.74414 c 0.31443,0.018 0.55016,0.28741 0.95507,0.82226 1.05928,1.39923 1.12548,2.76712 0.17774,3.71485 -0.77611,0.77611 -3.02776,0.97224 -3.67969,0.32031 -0.93473,-0.93472 -0.31937,-3.22611 1.1211,-4.16992 0.71826,-0.47063 1.11134,-0.70548 1.42578,-0.6875 z m 115.851557,1.05664 c -0.33,0 -0.59961,0.26961 -0.59961,0.59961 0,0.33 0.26961,0.59961 0.59961,0.59961 0.33,0 0.60156,-0.26961 0.60156,-0.59961 0,-0.33 -0.27156,-0.59961 -0.60156,-0.59961 z m -89.226557,0.2793 c 0.54893,0.0471 1.05919,1.28846 0.58593,1.76172 -0.64381,0.64382 -1.35937,0.37769 -1.35937,-0.50586 0,-0.47553 0.24169,-1.01469 0.53711,-1.19727 0.0772,-0.0477 0.15791,-0.0653 0.23633,-0.0586 z m 3.19726,2.12109 c 0.12651,0 0.23047,0.53922 0.23047,1.19922 0,0.66 -0.24581,1.20117 -0.54492,1.20117 -0.29912,0 -0.40112,-0.54117 -0.22852,-1.20117 0.1726,-0.66 0.41646,-1.19922 0.54297,-1.19922 z m 106.859377,3.63672 c 0.12322,0.002 0.16992,0.14668 0.16992,0.41797 0,0.25062 -0.60711,0.82902 -1.34961,1.28515 -1.34521,0.82637 -1.34596,0.82536 -0.20703,-0.45507 0.76428,-0.85923 1.18134,-1.2517 1.38672,-1.24805 z m -108.994137,0.5625 c 0.31053,0 0.56445,0.40539 0.56445,0.90039 0,0.92785 -0.7071,1.19134 -1.38281,0.51562 -0.47936,-0.47936 0.0618,-1.41601 0.81836,-1.41601 z m 131.296867,0 c 0.29255,0 0.65157,0.81078 0.79688,1.80078 0.27917,1.90216 -0.34899,2.45451 -0.96485,0.84961 -0.52753,-1.37474 -0.44654,-2.65039 0.16797,-2.65039 z m -158.021477,0.83789 c 0.15857,0.012 0.4488,0.12625 0.85156,0.3418 1.8375,0.98341 2.54496,3.13722 1.30664,3.97656 -1.67141,1.1329 -3.6212,1.41842 -3.25977,0.47656 0.17561,-0.45765 0.0196,-0.83203 -0.3457,-0.83203 -1.12754,0 -0.73261,-1.72227 0.55274,-2.41016 0.66924,-0.35817 1.04219,-0.93292 0.82812,-1.27929 -0.12,-0.19419 -0.0922,-0.28542 0.0664,-0.27344 z m 124.753897,0.96289 c 0.51447,0 0.93555,0.26961 0.93555,0.59961 0,0.33 -0.25392,0.59961 -0.56445,0.59961 -0.31052,0 -0.7316,-0.26961 -0.93555,-0.59961 -0.20395,-0.33 0.05,-0.59961 0.56445,-0.59961 z m -89.431637,2.10938 c 0.1932,0.0563 0.52266,0.3041 0.8418,0.65039 0.42551,0.46172 0.50713,0.83984 0.18359,0.83984 -0.62306,0 -1.52386,-1.14044 -1.16797,-1.47852 0.0289,-0.0274 0.0782,-0.0305 0.14258,-0.0117 z m 65.095707,0.36718 c 0.32625,0.004 0.62892,0.0467 0.83203,0.12891 0.40622,0.16435 -0.0705,0.28954 -1.06055,0.27734 -0.99,-0.0122 -1.32206,-0.14671 -0.73828,-0.29882 0.29189,-0.076 0.64055,-0.11146 0.9668,-0.10743 z m -5.07422,0.008 c 0.60747,0.0143 0.92966,0.13089 0.75195,0.30859 -0.5557,0.5557 -2.78634,0.72351 -3.08984,0.23242 -0.1282,-0.20742 0.61216,-0.44083 1.64453,-0.51953 0.25809,-0.0197 0.49086,-0.0263 0.69336,-0.0215 z m 26.74218,0.81445 c 2.37619,0 2.70714,0.16227 2.76954,1.35156 0.0389,0.7425 -0.0964,1.32272 -0.29883,1.29102 -0.20244,-0.0317 -1.64297,-0.36917 -3.20313,-0.75 -3.45522,-0.84339 -3.04989,-1.89258 0.73242,-1.89258 z m -12.14453,0.10351 c 0.33162,-0.0529 0.87436,0.022 1.72071,0.21289 1.19504,0.26952 2.61293,0.33848 3.15039,0.15235 0.86913,-0.30098 0.87664,-0.23795 0.0762,0.57031 -1.12562,1.13662 -4.02654,1.63771 -6,1.03711 -0.98112,-0.2986 -1.136,-0.47652 -0.44922,-0.51562 0.5775,-0.0329 1.05078,-0.43624 1.05078,-0.89649 0,-0.32595 0.11956,-0.50762 0.45117,-0.56055 z m -84.117177,0.79688 c 0.14553,0 0.26562,0.26961 0.26562,0.59961 0,0.33 -0.28725,0.60156 -0.63672,0.60156 -0.34949,0 -0.46762,-0.27156 -0.26367,-0.60156 0.20395,-0.33 0.48925,-0.59961 0.63477,-0.59961 z m -6.0586,1.49219 c 0.30821,0.005 0.61109,0.0355 0.90235,0.0937 1.9934,0.39868 2.07179,0.72964 0.25195,1.05468 -0.62216,0.11113 -2.14336,0.38395 -3.38086,0.60743 -2.70257,0.48806 -2.87042,0.10483 -0.49219,-1.125 0.82424,-0.42618 1.79413,-0.64599 2.71875,-0.63086 z m 4.47461,0.60351 c 0.10758,0.0118 0.22586,0.0404 0.34961,0.0879 0.495,0.18995 0.90039,0.45038 0.90039,0.58008 0,0.12969 -0.40539,0.23633 -0.90039,0.23633 -0.495,0 -0.90039,-0.26043 -0.90039,-0.58008 0,-0.2397 0.22805,-0.35952 0.55078,-0.32422 z m 105.119137,0.30451 c 0.66,0 1.03403,0.26961 0.83008,0.59961 -0.20395,0.33 -0.91031,0.59961 -1.57031,0.59961 -0.66,0 -1.03403,-0.26961 -0.83008,-0.59961 0.20395,-0.33 0.91031,-0.59961 1.57031,-0.59961 z m 35.36719,0.58594 c -0.12587,-0.0121 -0.26224,0.0396 -0.39649,0.17383 -0.19803,0.19805 -0.14908,0.70289 0.10938,1.12109 0.37802,0.61123 0.51943,0.61166 0.72266,0.002 0.21752,-0.65257 -0.0579,-1.2605 -0.43555,-1.29687 z m -162.310547,0.33594 c 0.12016,-0.0237 0.39863,0.12023 0.88477,0.42382 0.64142,0.40057 1.28964,1.05179 1.4414,1.44727 0.31954,0.83272 -1.07259,2.18718 -1.65234,1.60742 -0.21428,-0.21427 -0.0902,-0.75245 0.27734,-1.19531 0.42016,-0.50625 0.44361,-0.80469 0.0606,-0.80469 -0.3351,0 -0.76307,-0.40241 -0.95117,-0.89258 -0.14256,-0.3715 -0.18071,-0.56219 -0.0606,-0.58593 z m 132.431637,0.11914 c 0.53712,-0.0462 1.35839,0.30522 3.04883,1.16015 3.61499,1.82829 9.73434,5.89379 10.33594,6.86719 0.2355,0.38105 -0.54759,1.55861 -1.79688,2.70312 -2.31062,2.1168 -2.74609,2.35914 -2.74609,1.52735 0,-0.27515 -1.43828,-1.48971 -3.19727,-2.70117 -3.7292,-2.5684 -6.37731,-5.19727 -5.23437,-5.19727 0.60181,0 0.61957,-0.1929 0.0762,-0.84766 -0.4886,-0.58871 -0.50875,-0.96564 -0.0644,-1.24023 0.94123,-0.58171 0.0544,-1.6546 -1.02539,-1.24023 -0.75879,0.29116 -0.79124,0.19546 -0.18164,-0.53907 0.24353,-0.29343 0.46289,-0.46445 0.78515,-0.49218 z m -39.80859,1.43359 c -0.20844,-0.009 -0.44555,0.0286 -0.66211,0.11523 -0.47864,0.19154 -0.33569,0.33451 0.36328,0.36328 0.6325,0.026 0.98649,-0.11703 0.78711,-0.3164 -0.0997,-0.0997 -0.27984,-0.15353 -0.48828,-0.16211 z m 68.2168,0.13086 c -0.21516,-0.0362 -0.36719,0.0973 -0.36719,0.35937 0,0.34948 0.27156,0.63477 0.60156,0.63477 0.33,0 0.59961,-0.11815 0.59961,-0.26367 0,-0.14553 -0.26961,-0.43276 -0.59961,-0.63672 -0.0825,-0.051 -0.16265,-0.0817 -0.23437,-0.0937 z m 2.06836,0.39453 c -0.34947,0 -0.63477,0.26961 -0.63477,0.59961 0,0.33 0.11814,0.59961 0.26367,0.59961 0.14552,0 0.43277,-0.26961 0.63672,-0.59961 0.20395,-0.33 0.0839,-0.59961 -0.26562,-0.59961 z m -141.708987,1.89258 c 0.85541,0.0403 2.72922,0.57378 4.49805,1.30078 2.02152,0.83086 4.68507,1.82281 5.91797,2.20312 1.23291,0.38032 2.39686,0.94212 2.58593,1.24805 0.18906,0.30592 0.26019,0.52794 0.15821,0.49414 -0.10197,-0.0338 -1.09779,-0.27776 -2.21289,-0.54101 -1.11509,-0.26326 -2.60087,-0.74936 -3.30078,-1.08008 -0.6999,-0.33073 -3.02688,-1.22721 -5.17188,-1.99414 -2.387,-0.85346 -3.46365,-1.48099 -2.77539,-1.61719 0.0773,-0.0153 0.17858,-0.0194 0.30078,-0.0137 z m -29.02539,0.52539 c 0.33,0 0.19422,0.26214 -0.30078,0.58203 -0.495,0.3199 -1.17,0.58203 -1.5,0.58203 -0.33,0 -0.19422,-0.26213 0.30078,-0.58203 0.495,-0.31989 1.17,-0.58203 1.5,-0.58203 z m 22.35938,11.26172 c 0.15137,-0.0128 0.31921,-0.006 0.50195,0.0273 0.62577,0.11387 1.25544,0.32181 1.39844,0.46094 0.5219,0.50775 -0.88996,1.2185 -1.94336,0.97851 -1.25874,-0.28676 -1.01668,-1.37692 0.043,-1.46679 z m 9.7832,1.75976 c 0.72704,0.0394 0.85742,0.38003 0.85742,1.36133 0,1.29322 -0.30354,1.52396 -2.19531,1.68164 -3.89204,0.32441 -3.50842,-2.58688 0.39453,-2.99414 0.39252,-0.041 0.70101,-0.0619 0.94336,-0.0488 z m 7.66992,4.05664 c -0.47281,-0.0901 -1.3544,0.30698 -2.44727,1.22657 -1.62306,1.36571 -2.29069,1.55462 -4.42773,1.26172 -2.29682,-0.31481 -2.48746,-0.23931 -2.20117,0.85546 0.50852,1.9446 2.9513,2.59686 5.61328,1.5 0.7671,-0.3161 0.90049,-0.0558 0.69336,1.35547 -0.22337,1.52197 -0.007,1.83527 1.66992,2.41992 1.05903,0.36922 2.16299,0.52232 2.45508,0.3418 0.29209,-0.18053 0.53125,0.30941 0.53125,1.08789 0,0.77848 0.3247,1.73877 0.7207,2.13477 0.943787,0.9438 4.781437,0.9254 6.031247,-0.0293 1.3881,-1.06034 1.85347,-3.54204 0.90625,-4.83594 -0.46152,-0.63042 -1.60577,-1.11067 -2.72656,-1.14257 -1.70554,-0.0485 -1.93164,-0.25241 -1.93164,-1.7461 0,-1.39992 -0.3354,-1.78302 -1.949217,-2.2207 -1.28524,-0.34856 -2.23976,-0.30331 -2.79883,0.13281 -0.71398,0.55697 -0.73751,0.45332 -0.14844,-0.65234 0.54552,-1.02389 0.48258,-1.59935 0.01,-1.68946 z m 34.587887,0.92188 c 0.33,0 1.005,0.26214 1.5,0.58203 0.495,0.3199 0.62883,0.58203 0.29883,0.58203 -0.33,0 -1.005,-0.26213 -1.5,-0.58203 -0.495,-0.31989 -0.62883,-0.58203 -0.29883,-0.58203 z m -32.830077,2.77539 c 0.80601,-0.0229 1.37276,0.43586 1.20899,1.25976 -0.0987,0.49656 -0.76634,1.2936 -1.48438,1.76954 -1.17984,0.78203 -1.36878,0.7481 -1.95312,-0.34375 -0.52855,-0.9876 -0.41397,-1.36994 0.625,-2.09766 0.55108,-0.38599 1.11991,-0.57415 1.60351,-0.58789 z m -30.05273,2.6543 c -0.41126,0.037 -0.45279,0.35082 -0.25391,1.11132 0.24146,0.92334 -0.0777,1.551 -1.14453,2.25 -1.85299,1.21413 -1.71606,3.40715 0.23047,3.6836 0.7425,0.10545 1.34961,0.44295 1.34961,0.75 0,1.0377 1.03928,0.56546 3.2793,-1.48633 1.334,-1.22189 2.14799,-2.46897 2.02539,-3.10547 -0.17902,-0.92944 -0.31748,-0.9559 -1.10352,-0.20117 -1.09555,1.05192 -4.25227,2.49969 -4.6289,2.12305 -0.14985,-0.14985 0.30783,-0.85081 1.01562,-1.5586 1.49924,-1.49924 1.38697,-3.20609 -0.23047,-3.51758 -0.22356,-0.043 -0.40197,-0.0612 -0.53906,-0.0488 z m 71.808587,0.78515 c 0.21867,0.007 0.37305,0.245 0.37305,0.63086 0,1.05392 -0.35872,1.20919 -0.87305,0.37695 -0.18987,-0.3072 -0.0717,-0.72826 0.26367,-0.93554 0.0839,-0.0518 0.16344,-0.0747 0.23633,-0.0723 z m -36.6582,1.09571 c 0.54583,-0.0349 1.09645,0.0999 1.59375,0.42187 0.71384,0.46218 0.72662,0.72017 0.0762,1.50391 -0.44093,0.53129 -1.70519,0.94531 -2.88476,0.94531 -2.04177,0 -2.07437,-0.0369 -1.20704,-1.34961 0.61577,-0.932 1.51216,-1.46335 2.42188,-1.52148 z m -27.300777,1.88671 c -0.30553,0.038 -0.49641,0.19698 -0.51367,0.49415 -0.12927,2.22584 -0.64043,3.22742 -2.31641,4.53906 -1.0107,0.79099 -1.83789,1.95962 -1.83789,2.5957 0,0.96792 0.43436,1.15625 2.6582,1.15625 1.46143,0 3.01808,-0.36182 3.46094,-0.80469 0.44288,-0.44289 1.40884,-1.12775 2.14453,-1.52148 1.73257,-0.92725 1.72556,-3.10929 -0.0137,-4.70117 -1.10798,-1.01412 -2.40682,-1.66672 -3.24023,-1.75586 -0.12502,-0.0134 -0.23996,-0.0146 -0.3418,-0.002 z m 33.548827,0.88477 c -0.74663,0.0122 -1.67476,0.27259 -2.73438,0.79688 -2.94967,1.45936 -6.68931,5.5921 -6.66211,7.36132 0.019,1.23702 0.022,1.2362 0.89844,0.041 1.68922,-2.30352 5.92291,-6.29385 7.05859,-6.6543 0.62956,-0.19981 1.39553,-0.11229 1.70313,0.19531 0.75288,0.75288 0.0452,2.43884 -1.1875,2.83008 -1.19503,0.37929 -2.66094,2.55516 -1.99805,2.96485 0.25817,0.15956 1.72514,-0.52712 3.25977,-1.52539 1.53465,-0.99827 3.07254,-1.64123 3.41797,-1.42774 0.99806,0.61684 0.7331,1.40347 -0.61719,1.83203 -0.68487,0.21737 -1.09078,0.54985 -0.90235,0.73828 0.4127,0.4127 -5.27949,4.33073 -6.3789,4.39063 -0.42552,0.0232 -0.23422,0.27303 0.42578,0.55664 1.49521,0.64251 2.956,0.69283 5.9082,0.20508 2.13393,-0.35255 2.28277,-0.50415 1.97852,-2.02539 -0.23351,-1.16758 0.0102,-1.95252 0.84179,-2.70508 2.24209,-2.02907 0.88606,-5.63535 -1.79882,-4.7832 -0.96322,0.30572 -1.22852,0.12572 -1.22852,-0.83008 0,-1.30941 -0.74,-1.98133 -1.98437,-1.96094 z m -63.318357,1.65234 c -0.25518,0.004 -0.51059,0.0338 -0.76367,0.0898 -1.31209,0.2907 -2.27008,2.58836 -1.69141,4.05859 0.25977,0.66 0.49242,1.82511 0.51562,2.58984 0.0353,1.16459 -0.17273,1.32264 -1.27539,0.97266 -0.72408,-0.22981 -1.78013,-0.99149 -2.34765,-1.6914 -1.41374,-1.7436 -2.21575,-0.70701 -1.00782,1.30273 1.39967,2.32875 3.70069,3.04823 5.25391,1.64258 1.2696,-1.14896 1.6588,-4.17386 0.61914,-4.81641 -0.33,-0.20395 -0.60156,-0.76081 -0.60156,-1.23633 0,-1.47763 2.40689,-0.95073 3.93164,0.86133 0.90573,1.0764 2.48188,1.98703 4.18555,2.41602 3.13064,0.7883 3.89762,1.98579 2.35937,3.68554 -0.97812,1.08081 -1.19083,1.10443 -2.45312,0.27735 -1.99459,-1.3069 -5.02344,-1.20058 -5.02344,0.17578 0,0.594 0.3375,1.42739 0.75,1.85156 0.48681,0.50119 1.7585,0.67788 3.62109,0.50586 5.194,-0.4797 7.7956,-4.79018 4.0586,-6.72266 -0.97362,-0.50347 -2.53843,-0.91601 -3.47852,-0.91601 -1.40059,0 -1.8423,-0.36845 -2.44922,-2.04688 -0.65635,-1.81511 -2.41687,-3.02637 -4.20312,-3 z m 31.41406,0.0215 c 0.24064,-0.0246 0.52265,0.19468 1.01758,0.64258 0.58887,0.53293 1.07031,1.16857 1.07031,1.41211 0,0.7767 -1.53738,1.06571 -2.57617,0.48437 -0.82414,-0.4612 -0.87574,-0.76721 -0.28516,-1.71289 0.33249,-0.5324 0.5328,-0.8016 0.77344,-0.82617 z m 48.115227,0.22656 c -0.11141,0 -0.80126,0.80883 -1.5332,1.79883 -0.73224,0.99 -1.05797,1.80078 -0.72656,1.80078 0.3314,0 1.02125,-0.81078 1.5332,-1.80078 0.51195,-0.99 0.83798,-1.79883 0.72656,-1.79883 z m -50.999997,3.26953 c 0.13953,0.009 0.27256,0.0364 0.39649,0.084 0.98886,0.37946 1.35146,1.40843 0.52539,1.49023 -0.2475,0.0245 -1.05633,0.15847 -1.79883,0.29688 -0.7425,0.1384 -1.34961,0.016 -1.34961,-0.27149 0,-0.83404 1.24991,-1.66093 2.22656,-1.59961 z m 9.18946,0.73242 c -1.26535,0.022 -2.87998,0.58981 -4.35352,1.86328 -1.70857,1.47661 -0.62783,1.88914 1.75977,0.67188 3.44967,-1.75874 4.14531,-1.41641 2.02539,0.99805 -1.03146,1.17476 -1.71713,2.39093 -1.52539,2.70117 0.54626,0.88388 4.62435,0.70703 4.32617,-0.1875 -0.1375,-0.4125 -0.56422,-0.78292 -0.94922,-0.82422 -0.385,-0.0412 -0.84558,-0.10909 -1.02344,-0.15039 -0.17785,-0.0413 0.22754,-0.66645 0.90039,-1.38867 2.09005,-2.2434 0.94876,-3.72018 -1.16015,-3.6836 z m -18.35938,3.25196 c -0.0797,-0.0125 -0.1648,-0.0123 -0.25781,0.002 -0.62009,0.0953 -1.56107,0.7948 -3.16211,2.25195 -1.39513,1.26974 -4.49422,3.72248 -6.88672,5.44922 -2.3925,1.72673 -4.35156,3.52172 -4.35156,3.99024 0,1.19998 0.23203,1.11811 3.75781,-1.33789 7.55106,-5.25995 11.98926,-9.08739 11.48438,-9.9043 -0.16014,-0.2591 -0.34495,-0.41384 -0.58399,-0.45117 z m 3.85156,2.56445 c -1.53102,0.16323 -4.9834,2.48649 -7.70312,5.18164 -0.83253,0.825 -2.85213,2.63478 -4.48828,4.02149 -1.63614,1.38668 -2.78462,2.71147 -2.55078,2.94531 0.61699,0.617 4.0143,-1.34366 9.67773,-5.58594 3.67308,-2.75139 5.30158,-3.63143 6.25977,-3.38086 0.71229,0.18627 1.29492,0.58279 1.29492,0.88086 0,1.26703 -3.29283,5.58303 -7.19922,9.43555 -3.91844,3.86441 -4.78577,5.2982 -3.80078,6.2832 1.083,1.08301 2.86839,0.48869 10.40039,-3.45898 3.45028,-1.80835 9.43105,-3.15098 10.27539,-2.30664 0.41676,0.41675 0.11202,0.73999 -0.95508,1.00781 -0.86266,0.21652 -1.40695,0.65429 -1.20898,0.97461 0.65146,1.05409 3.05582,0.60846 4.39258,-0.81446 l 1.3125,-1.39648 -1.37696,-1.60352 c -1.61191,-1.8759 -3.22142,-2.00893 -7.16992,-0.59375 -2.4333,0.87213 -3.04379,0.90003 -4.34961,0.20118 -0.83553,-0.44718 -1.51953,-1.03446 -1.51953,-1.3047 0,-0.27024 1.07898,-1.50654 2.39844,-2.74805 2.30411,-2.16798 3.06571,-3.75781 1.80078,-3.75781 -0.33,0 -0.59961,0.27156 -0.59961,0.60156 0,0.33 -0.26961,0.59961 -0.59961,0.59961 -0.33,0 -0.59961,-0.6337 -0.59961,-1.4082 0,-2.0319 -1.89158,-3.96534 -3.69141,-3.77344 z m -19.1582,0.45508 c 0.20844,0.009 0.38664,0.0644 0.48633,0.16406 0.19938,0.19938 -0.15461,0.34045 -0.78711,0.31445 -0.69897,-0.0288 -0.84192,-0.16979 -0.36328,-0.36132 0.21656,-0.0867 0.45562,-0.12577 0.66406,-0.11719 z m 19.28516,11.3457 c 0.18443,-0.011 0.85943,0.36646 1.5,0.83789 1.15013,0.84643 1.14983,0.86193 -0.0352,1.3086 -0.66,0.24879 -1.87617,0.92023 -2.70117,1.49218 -0.825,0.57193 -2.175,1.23101 -3,1.46485 l -1.5,0.42578 1.5,-1.69336 c 1.77437,-2.00426 3.76618,-3.80794 4.23633,-3.83594 z m -48.21094,1.3828 c -0.140496,-0.007 -0.237621,0.0111 -0.28125,0.0547 -0.174522,0.17452 0.328731,0.57641 1.119141,0.89258 2.327809,0.93115 3.424919,0.63529 1.216797,-0.32813 -0.833169,-0.36348 -1.633199,-0.59866 -2.054688,-0.61914 z m 8.57422,2.83985 c -0.90262,0.0168 1.30267,1.12478 6.90039,3.46484 3.57166,1.4931 4.29007,1.58602 3.33203,0.43164 -0.39321,-0.47379 -1.54131,-1.04348 -2.55273,-1.26562 -1.01142,-0.22215 -2.95033,-0.90856 -4.3086,-1.52539 -1.35828,-0.61681 -2.87609,-1.11447 -3.37109,-1.10547 z m 13.2539,5.04883 c -0.29035,0.0936 1.37122,1.07353 4.08399,2.38476 3.1003,1.49854 5.93608,2.72652 6.30078,2.72852 0.36469,0.002 1.47289,0.42743 2.46289,0.94726 0.99,0.51982 2.74344,1.2949 3.89844,1.72071 3.10325,1.14406 14.04964,5.09008 19.15039,6.90429 2.44735,0.87046 4.9656,1.62242 5.5957,1.66992 2.06684,0.15569 -0.0492,-1.57673 -2.45508,-2.00976 -1.20434,-0.21676 -2.46101,-0.59683 -2.79101,-0.8457 -0.33,-0.24886 -1.54422,-0.65239 -2.69922,-0.89649 -1.155,-0.2441 -3.18,-0.92308 -4.5,-1.50976 -2.34869,-1.0439 -6.36529,-2.53706 -15.19336,-5.64454 -2.41664,-0.85066 -6.06125,-2.34106 -8.09961,-3.3125 -2.03837,-0.97144 -4.51781,-1.92559 -5.50781,-2.12109 -0.12375,-0.0244 -0.2046,-0.029 -0.2461,-0.0156 z"
     style="fill:#000000"
     inkscape:connector-curvature="0" />
</svg>
